<!-- <?xml version="1.0" standalone="no"?>
<!DOCTYPE svg PUBLIC "-//W3C//DTD SVG 20010904//EN"
 "http://www.w3.org/TR/2001/REC-SVG-20010904/DTD/svg10.dtd"> -->
<svg version="1.0" xmlns="http://www.w3.org/2000/svg"
 width="1594.000000pt" height="1311.000000pt" viewBox="0 0 1594.000000 1311.000000"
 preserveAspectRatio="xMidYMid meet">

<g transform="translate(0.000000,1311.000000) scale(0.100000,-0.100000)"
fill="#000000" stroke="none">
<path d="M0 6555 l0 -6555 1200 0 1200 0 0 6550 0 6550 6773 3 6772 2 -7972 3
-7973 2 0 -6555z m520 6270 l85 -85 -36 0 c-29 0 -44 9 -89 55 l-54 55 -56
-55 c-42 -42 -63 -55 -85 -55 -28 0 -26 3 55 85 47 47 87 85 90 85 3 0 43 -38
90 -85z m347 -40 c2 -5 -14 -10 -34 -10 -48 0 -51 -24 -6 -39 41 -14 55 -29
47 -49 -8 -21 -45 -31 -79 -23 -39 10 -29 23 16 22 56 -1 60 19 7 35 -47 15
-58 37 -32 63 18 18 75 19 81 1z m563 0 c10 -12 6 -13 -24 -8 -43 7 -66 -9
-66 -46 0 -35 17 -51 52 -51 23 0 28 4 28 24 0 15 -7 26 -17 29 -11 3 -7 5 10
6 27 1 28 -1 25 -36 -3 -36 -5 -38 -40 -41 -68 -6 -105 71 -58 118 23 23 72
26 90 5z m410 -52 l0 -68 -32 -2 c-40 -3 -58 12 -58 47 0 33 22 54 50 47 14
-4 20 0 20 12 0 16 8 31 17 31 2 0 3 -30 3 -67z m-540 24 c12 -4 11 -6 -2 -6
-13 -1 -18 -9 -18 -32 0 -18 7 -38 18 -46 16 -12 15 -13 -8 -11 -21 3 -26 9
-28 38 -2 19 -8 41 -14 47 -7 9 -7 13 1 13 6 0 11 8 11 18 1 15 2 15 13 1 7
-9 19 -18 27 -22z m-262 -49 c2 -29 -1 -48 -7 -48 -6 0 -11 17 -11 38 0 43 -6
53 -26 45 -9 -3 -14 -20 -14 -44 0 -21 -4 -39 -10 -39 -5 0 -10 18 -10 40 0
33 -3 40 -20 40 -17 0 -20 -7 -20 -40 0 -22 -4 -40 -10 -40 -5 0 -10 22 -10
50 l0 50 68 -3 67 -2 3 -47z m100 40 c7 -7 12 -29 12 -49 0 -36 -1 -37 -37
-36 -33 2 -38 5 -38 27 0 20 6 26 28 28 37 4 34 22 -4 22 -17 0 -28 4 -24 10
9 14 48 13 63 -2z m75 -5 c-16 -11 -23 -25 -23 -50 0 -20 -4 -32 -10 -28 -10
6 -14 77 -6 86 3 3 18 5 33 6 l28 2 -22 -16z m277 -29 c0 -27 4 -34 20 -34 17
0 20 7 20 40 0 22 5 40 10 40 6 0 10 -22 10 -49 l0 -49 -37 1 -38 2 -3 48 c-2
33 0 47 7 42 6 -3 11 -22 11 -41z m158 34 c7 -7 12 -29 12 -49 0 -36 -1 -37
-37 -36 -33 2 -38 5 -38 27 0 20 6 26 28 28 37 4 34 22 -4 22 -17 0 -28 4 -24
10 9 14 48 13 63 -2z m75 -5 c-16 -11 -23 -25 -23 -50 0 -20 -4 -32 -10 -28
-10 6 -14 77 -6 86 3 3 18 5 33 6 l28 2 -22 -16z m-1383 -98 l54 -55 56 55
c42 42 63 55 85 55 29 0 26 -4 -58 -87 l-87 -88 -87 88 -88 87 35 0 c30 0 45
-9 90 -55z m69 -791 c-15 -18 -159 -20 -177 -2 -18 18 -14 38 8 38 18 0 20 7
20 89 l0 88 70 -2 c42 -1 74 3 78 9 4 6 8 -38 10 -98 2 -71 -1 -113 -9 -122z
m264 159 c-20 -4 -23 -11 -25 -56 l-2 -52 -3 52 c-3 44 -7 52 -26 56 -12 2 1
4 28 4 28 0 40 -2 28 -4z m195 -77 l27 -29 -27 17 c-25 16 -27 16 -31 -1 -3
-10 -5 9 -4 42 0 33 2 47 4 30 3 -16 17 -43 31 -59z m152 51 c12 -4 11 -6 -2
-6 -12 -1 -18 -9 -18 -26 0 -13 8 -29 18 -34 16 -10 16 -10 0 -11 -10 0 -20
10 -23 23 -10 48 -9 88 3 71 4 -6 14 -14 22 -17z m-237 -7 c-14 -6 -23 -18
-23 -30 0 -12 9 -24 23 -30 12 -5 17 -9 10 -9 -27 -2 -43 13 -43 39 0 28 11
38 40 39 8 0 5 -4 -7 -9z m97 6 c0 -2 -8 -10 -17 -17 -16 -13 -17 -12 -4 4 13
16 21 21 21 13z m78 -8 c19 -19 14 -28 -18 -28 -35 0 -40 -17 -7 -30 13 -5 16
-9 6 -9 -19 -1 -39 18 -39 39 0 18 19 40 35 40 6 0 16 -5 23 -12z m129 6 c-3
-3 -12 -4 -19 -1 -8 3 -5 6 6 6 11 1 17 -2 13 -5z m-370 -51 c-3 -10 -5 -2 -5
17 0 19 2 27 5 18 2 -10 2 -26 0 -35z m337 31 c3 -8 2 -12 -4 -9 -6 3 -10 10
-10 16 0 14 7 11 14 -7z m39 -45 c-6 -6 -19 -9 -29 -6 -15 4 -14 5 5 6 18 1
22 5 16 19 -5 14 -4 15 6 5 10 -10 10 -16 2 -24z m-698 -362 c25 -14 40 -30
40 -42 0 -32 -71 -67 -125 -60 -96 11 -95 11 -95 -10 0 -16 6 -19 30 -17 38 4
111 4 150 0 37 -4 41 -32 5 -36 -14 -1 -45 -4 -70 -7 -54 -7 -125 28 -125 60
0 32 71 67 125 60 96 -11 95 -11 95 10 0 16 -6 19 -30 17 -74 -8 -179 -2 -192
12 -10 10 19 26 37 21 8 -2 22 0 30 5 26 17 83 11 125 -13z m284 -26 c10 -7 4
-9 -19 -8 -39 2 -52 -19 -18 -32 15 -6 17 -10 7 -10 -9 -1 -22 6 -29 14 -25
30 23 58 59 36z m441 -58 c0 -16 20 -17 20 -1 0 6 2 9 5 6 3 -3 1 -16 -4 -29
-9 -24 -9 -24 -24 11 -8 19 -17 46 -21 60 -5 21 -3 20 9 -5 8 -16 14 -36 15
-42z m44 30 c-17 -17 -18 -17 -11 0 4 10 7 24 7 30 0 8 3 8 11 0 9 -9 7 -16
-7 -30z m284 -47 l27 -29 -27 17 c-25 16 -27 16 -31 -1 -3 -10 -5 9 -4 42 0
33 2 47 4 30 3 -16 17 -43 31 -59z m62 74 c-13 -9 -13 -11 0 -20 10 -6 11 -10
3 -10 -8 0 -14 -15 -14 -37 l-2 -38 -6 40 c-7 43 2 75 22 75 8 0 6 -4 -3 -10z
m53 -93 c8 -6 7 -7 -3 -4 -11 2 -15 19 -16 58 l-1 54 4 -50 c2 -27 10 -53 16
-58z m-544 65 c-16 -6 -10 -51 9 -62 15 -10 15 -10 -3 -8 -14 2 -22 13 -25 38
-8 47 -2 63 15 47 7 -7 9 -13 4 -15z m-203 -35 l1 -37 -4 36 c-6 47 -35 44
-44 -6 l-6 -35 -2 38 c-1 31 -4 38 -18 35 -12 -2 -20 -16 -24 -38 l-6 -35 -2
41 -1 41 53 -1 52 -1 1 -38z m82 31 c14 -14 16 -72 2 -63 -5 3 -7 12 -3 20 3
10 -2 15 -16 15 -21 0 -29 -24 -11 -33 6 -3 5 -4 -2 -3 -23 5 -14 40 12 47
l25 6 -25 11 c-14 6 -18 11 -9 11 8 1 20 -4 27 -11z m390 5 c-10 -2 -18 -9
-18 -15 0 -6 -3 -9 -6 -5 -10 10 6 27 24 26 15 -1 15 -2 0 -6z m89 -6 c-9 -7
-18 -25 -20 -42 -3 -25 -4 -23 -6 10 -1 35 2 41 20 42 19 2 19 0 6 -10z m83 9
c0 -2 -8 -10 -17 -17 -16 -13 -17 -12 -4 4 13 16 21 21 21 13z m174 -2 c24 -9
21 -61 -4 -69 -39 -12 -66 35 -38 63 14 14 20 14 42 6z m106 -15 c0 -6 -4 -7
-10 -4 -5 3 -10 11 -10 16 0 6 5 7 10 4 6 -3 10 -11 10 -16z m-796 -16 c-10
-40 -14 -41 -14 -5 0 18 5 32 10 32 6 0 8 -11 4 -27z m271 -4 c4 12 9 21 11
18 3 -2 0 -17 -6 -33 -12 -31 -21 -24 -34 26 -5 21 -4 20 8 -4 13 -29 14 -29
21 -7z m555 -15 c-9 -23 -13 -25 -20 -14 -6 8 -10 20 -10 25 0 6 4 4 9 -4 7
-11 10 -9 16 8 4 13 9 21 11 18 3 -2 0 -17 -6 -33z m-1080 1 c0 -19 -44 -30
-67 -17 -14 9 -11 10 17 9 28 -2 35 2 34 15 -1 10 2 15 7 12 5 -3 9 -12 9 -19z
m1020 15 c5 8 10 10 10 4 0 -5 -7 -19 -15 -30 -8 -10 -15 -14 -15 -7 0 6 -3
20 -6 30 -5 15 -4 16 5 3 10 -13 12 -13 21 0z m-420 -30 c10 0 21 5 23 10 3 6
4 5 3 -2 -2 -7 -13 -13 -26 -13 -13 0 -24 6 -26 13 -1 7 0 8 3 2 2 -5 13 -10
23 -10z m-900 -325 c0 -3 -6 -14 -12 -25 -18 -29 4 -50 33 -32 29 18 37 6 18
-26 -10 -18 -24 -28 -44 -30 -21 -3 -46 -21 -86 -64 -57 -61 -74 -67 -93 -34
-9 15 -1 27 52 74 47 43 62 64 62 84 0 16 9 33 22 42 22 16 48 21 48 11z m268
-62 c-20 -3 -28 -10 -28 -24 0 -14 7 -19 28 -20 l27 -2 -27 -4 c-19 -3 -28
-10 -28 -23 0 -13 9 -20 28 -23 25 -4 25 -4 -5 -6 l-33 -1 0 55 0 55 33 -1
c30 -2 30 -2 5 -6z m112 -47 c0 -51 -1 -53 -26 -52 -34 1 -53 29 -38 54 7 9
21 17 33 16 14 0 21 5 21 18 0 10 2 18 5 18 3 0 5 -24 5 -54z m229 45 c10 -7
4 -9 -19 -8 -39 2 -52 -19 -18 -32 15 -6 17 -10 7 -10 -9 -1 -22 6 -29 14 -25
30 23 58 59 36z m113 -8 c22 -20 23 -51 1 -75 -31 -34 -83 -12 -83 37 0 48 47
70 82 38z m118 2 c17 -20 -3 -45 -36 -45 -17 0 -24 -7 -27 -27 -2 -16 -5 -2
-6 30 -1 57 -1 57 28 57 16 0 34 -7 41 -15z m-371 -23 c-16 -6 -10 -51 9 -62
15 -10 15 -10 -3 -8 -14 2 -22 13 -25 38 -8 47 -2 63 15 47 7 -7 9 -13 4 -15z
m-52 -54 c-2 -13 -4 -3 -4 22 0 25 2 35 4 23 2 -13 2 -33 0 -45z m490 56 c-3
-3 -12 -4 -19 -1 -8 3 -5 6 6 6 11 1 17 -2 13 -5z m-33 -20 c3 -8 2 -12 -4 -9
-6 3 -10 10 -10 16 0 14 7 11 14 -7z m-254 -29 c0 -19 -44 -30 -67 -17 -14 9
-11 10 17 9 28 -2 35 2 34 15 -1 10 2 15 7 12 5 -3 9 -12 9 -19z m293 -16 c-6
-6 -19 -9 -29 -6 -15 4 -14 5 5 6 18 1 22 5 16 19 -5 14 -4 15 6 5 10 -10 10
-16 2 -24z m-973 -354 c0 -8 -4 -15 -10 -15 -5 0 -10 4 -10 9 0 5 -17 4 -40
-1 l-40 -10 0 -79 0 -79 40 0 39 0 3 68 3 67 53 3 52 3 -2 -53 -2 -53 -3 48
-4 47 -40 0 -39 0 0 -65 0 -64 58 -4 c31 -2 1 -4 -68 -4 -69 -1 -119 1 -112 4
8 3 12 31 12 87 l0 83 43 10 c60 15 67 15 67 -2z m349 -34 c10 -7 4 -9 -19 -8
-39 2 -52 -19 -18 -32 15 -6 17 -10 7 -10 -9 -1 -22 6 -29 14 -25 30 23 58 59
36z m-392 -7 c-3 -3 -12 -4 -19 -1 -8 3 -5 6 6 6 11 1 17 -2 13 -5z m477 -23
c4 -5 -3 -7 -14 -4 -23 6 -26 13 -6 13 8 0 17 -4 20 -9z m59 -1 c-14 -6 -23
-18 -23 -30 0 -12 9 -24 23 -30 13 -5 16 -9 6 -9 -19 -1 -39 18 -39 39 0 21
20 40 40 39 9 0 6 -4 -7 -9z m78 1 c-8 -5 -20 -7 -28 -4 -21 8 -15 13 15 13
20 0 23 -3 13 -9z m36 -53 c-2 -13 -4 -3 -4 22 0 25 2 35 4 23 2 -13 2 -33 0
-45z m77 56 c24 -9 21 -61 -4 -69 -39 -12 -66 35 -38 63 14 14 20 14 42 6z
m102 -39 c1 -28 0 -31 -3 -10 -2 17 -12 36 -21 43 -16 13 -15 14 3 10 16 -2
20 -12 21 -43z m74 41 c0 -2 -9 -6 -20 -9 -11 -3 -18 -1 -14 4 5 9 34 13 34 5z
m-900 -16 c0 -5 -7 -10 -15 -10 -8 0 -15 5 -15 10 0 6 7 10 15 10 8 0 15 -4
15 -10z m90 0 c0 -5 -7 -10 -15 -10 -8 0 -15 5 -15 10 0 6 7 10 15 10 8 0 15
-4 15 -10z m370 -13 c25 -4 25 -4 -2 -6 -34 -1 -36 -18 -5 -31 12 -5 17 -9 10
-9 -29 -2 -43 12 -43 43 0 17 4 26 8 20 4 -7 18 -14 32 -17z m314 -4 c-10 -40
-14 -41 -14 -5 0 18 5 32 10 32 6 0 8 -11 4 -27z m-374 -18 c0 -19 -44 -30
-67 -17 -14 9 -11 10 17 9 28 -2 35 2 34 15 -1 10 2 15 7 12 5 -3 9 -12 9 -19z
m508 -2 c-2 -11 -13 -19 -28 -20 -24 -1 -24 -1 -2 4 15 3 22 10 18 19 -3 8 -1
14 5 14 6 0 9 -8 7 -17z m-911 1 c-3 -3 -12 -4 -19 -1 -8 3 -5 6 6 6 11 1 17
-2 13 -5z m90 0 c-3 -3 -12 -4 -19 -1 -8 3 -5 6 6 6 11 1 17 -2 13 -5z m528
-23 c-6 -5 -25 10 -25 20 0 5 6 4 14 -3 8 -7 12 -15 11 -17z m-615 -11 c0 -5
-7 -10 -15 -10 -8 0 -15 5 -15 10 0 6 7 10 15 10 8 0 15 -4 15 -10z m90 0 c0
-5 -7 -10 -15 -10 -8 0 -15 5 -15 10 0 6 7 10 15 10 8 0 15 -4 15 -10z m60
-324 c0 -7 -7 -19 -15 -26 -10 -8 -15 -31 -15 -67 0 -47 -4 -59 -29 -84 -20
-20 -39 -29 -61 -29 -22 0 -41 9 -61 29 -25 25 -29 37 -29 84 0 36 -5 59 -15
67 -8 7 -15 19 -15 26 0 11 25 14 120 14 95 0 120 -3 120 -14z m213 -43 c-20
-4 -23 -11 -23 -48 0 -37 3 -44 23 -48 19 -4 18 -4 -5 -6 -27 -1 -28 0 -28 54
0 54 1 55 28 54 23 -2 24 -2 5 -6z m57 -48 c0 -12 -7 -28 -16 -35 -13 -12 -14
-10 -4 12 9 20 9 31 -1 49 -11 22 -11 23 4 10 10 -7 17 -24 17 -36z m74 16 c4
-5 -3 -7 -14 -4 -23 6 -26 13 -6 13 8 0 17 -4 20 -9z m46 -26 c0 -5 -5 -3 -10
5 -5 8 -10 20 -10 25 0 6 5 3 10 -5 5 -8 10 -19 10 -25z m34 -8 c-16 -33 -34
-41 -34 -16 0 6 4 8 9 5 5 -3 14 8 21 24 7 17 15 29 17 27 2 -3 -4 -21 -13
-40z m43 -19 c-2 -13 -4 -3 -4 22 0 25 2 35 4 23 2 -13 2 -33 0 -45z m56 52
c-14 -6 -23 -18 -23 -30 0 -12 9 -24 23 -30 13 -5 16 -9 6 -9 -19 -1 -39 18
-39 39 0 21 20 40 40 39 9 0 6 -4 -7 -9z m105 -13 c3 -13 -3 -17 -27 -17 -23
0 -31 4 -30 18 0 10 3 12 6 5 5 -15 43 -18 43 -4 0 5 -8 12 -17 15 -14 4 -14
4 2 3 11 -1 21 -10 23 -20z m69 17 c-3 -3 -12 -4 -19 -1 -8 3 -5 6 6 6 11 1
17 -2 13 -5z m-367 -27 c25 -4 25 -4 -2 -6 -34 -1 -36 -18 -5 -31 12 -5 17 -9
10 -9 -29 -2 -43 12 -43 43 0 17 4 26 8 20 4 -7 18 -14 32 -17z m334 7 c3 -8
2 -12 -4 -9 -6 3 -10 10 -10 16 0 14 7 11 14 -7z m39 -45 c-6 -6 -19 -9 -29
-6 -15 4 -14 5 5 6 18 1 22 5 16 19 -5 14 -4 15 6 5 10 -10 10 -16 2 -24z
m-86 -5 c-3 -3 -12 -4 -19 -1 -8 3 -5 6 6 6 11 1 17 -2 13 -5z m-715 -331 c2
-12 13 -18 33 -18 27 0 30 -3 30 -30 0 -20 6 -31 18 -33 9 -2 17 -12 17 -22 0
-10 -8 -20 -17 -22 -12 -2 -18 -13 -18 -33 0 -27 -3 -30 -30 -30 -20 0 -31 -6
-33 -17 -2 -10 -12 -18 -22 -18 -10 0 -20 8 -22 18 -2 11 -13 17 -33 17 -27 0
-30 3 -30 30 0 20 -6 31 -17 33 -23 4 -23 40 0 44 11 2 17 13 17 33 0 27 3 30
30 30 20 0 31 6 33 18 2 9 12 17 22 17 10 0 20 -8 22 -17z m313 -69 c-8 -9
-15 -20 -15 -26 0 -6 -2 -9 -5 -6 -9 8 17 58 27 52 4 -3 1 -12 -7 -20z m54
-79 c0 -5 -4 -2 -10 8 -6 10 -22 17 -39 17 -17 0 -34 -7 -40 -17 -11 -17 -11
-17 -6 0 3 10 6 21 6 23 0 2 14 4 31 4 27 0 30 3 24 23 -3 13 2 8 14 -13 11
-19 20 -39 20 -45z m51 68 c-8 -4 -21 -13 -28 -22 -11 -14 -11 -13 -2 7 6 12
18 22 28 21 14 0 14 -2 2 -6z m117 -1 c9 -5 10 -17 4 -37 l-9 -30 -1 32 c-1
17 -7 34 -13 36 -7 3 -8 6 -3 6 6 0 15 -3 22 -7z m49 -33 c2 -31 1 -31 -3 -4
-3 16 -10 34 -16 38 -8 6 -7 7 3 4 9 -2 16 -17 16 -38z m41 -21 c-2 -13 -4 -3
-4 22 0 25 2 35 4 23 2 -13 2 -33 0 -45z m40 0 c-2 -13 -4 -3 -4 22 0 25 2 35
4 23 2 -13 2 -33 0 -45z m49 17 l1 -40 -4 37 c-3 23 -10 39 -21 42 -12 3 -12
4 3 3 16 -2 20 -10 21 -42z m-222 8 c-10 -40 -14 -41 -14 -5 0 18 5 32 10 32
6 0 8 -11 4 -27z m-74 -36 c11 -5 9 -6 -4 -4 -11 1 -21 9 -23 17 -3 10 -2 11
4 4 4 -6 15 -14 23 -17z m-398 -359 c31 -35 38 -51 38 -85 0 -23 5 -45 10 -48
22 -14 10 -35 -21 -35 -17 0 -37 -7 -45 -15 -9 -8 -19 -15 -24 -15 -5 0 -15 7
-24 15 -8 8 -28 15 -45 15 -31 0 -43 21 -21 35 6 3 10 25 10 48 0 34 7 50 37
85 21 23 40 42 42 42 3 0 22 -19 43 -42z m329 -61 c6 35 6 34 8 -16 l1 -55
-32 42 c-18 23 -36 42 -40 42 -4 0 -8 8 -8 17 0 10 12 1 33 -26 l32 -42 6 38z
m252 36 c-20 -8 -15 -21 10 -25 18 -2 22 -10 23 -41 l1 -37 -4 35 c-3 27 -9
35 -24 35 -15 0 -19 -8 -20 -37 l-2 -38 -6 40 c-7 43 2 75 22 74 9 0 9 -2 0
-6z m-155 -35 c28 -28 1 -75 -38 -63 -14 4 -20 15 -20 35 0 37 33 53 58 28z
m63 3 c-8 -5 -20 -7 -28 -4 -21 8 -15 13 15 13 20 0 23 -3 13 -9z m36 -53 c-2
-13 -4 -3 -4 22 0 25 2 35 4 23 2 -13 2 -33 0 -45z m146 52 c-14 -6 -23 -18
-23 -30 0 -12 9 -24 23 -30 13 -5 16 -9 7 -9 -20 -1 -40 18 -40 39 0 21 20 40
40 39 9 0 6 -4 -7 -9z m91 1 c4 -5 -3 -7 -14 -4 -23 6 -26 13 -6 13 8 0 17 -4
20 -9z m67 0 c-8 -5 -20 -7 -28 -4 -21 8 -15 13 15 13 20 0 23 -3 13 -9z m36
-53 c-2 -13 -4 -3 -4 22 0 25 2 35 4 23 2 -13 2 -33 0 -45z m77 56 c24 -9 21
-61 -4 -69 -39 -12 -66 35 -38 63 14 14 20 14 42 6z m53 -56 c-2 -13 -4 -3 -4
22 0 25 2 35 4 23 2 -13 2 -33 0 -45z m49 17 l1 -40 -4 37 c-3 23 -10 39 -21
42 -12 3 -12 4 3 3 16 -2 20 -10 21 -42z m74 41 c0 -2 -9 -6 -20 -9 -11 -3
-18 -1 -14 4 5 9 34 13 34 5z m-360 -33 c-8 -2 -22 -7 -30 -10 -12 -4 -12 -7
4 -19 11 -8 15 -14 9 -14 -6 0 -15 6 -22 13 -14 17 5 37 34 36 13 0 15 -2 5
-6z m368 -20 c-2 -11 -13 -19 -28 -20 -24 -1 -24 -1 -2 4 15 3 22 10 18 19 -3
8 -1 14 5 14 6 0 9 -8 7 -17z m-633 -22 c-6 -5 -25 10 -25 20 0 5 6 4 14 -3 8
-7 12 -15 11 -17z m340 0 c-6 -5 -25 10 -25 20 0 5 6 4 14 -3 8 -7 12 -15 11
-17z m-808 -346 c35 -23 49 -82 29 -128 -34 -83 -150 -85 -190 -3 -17 36 -18
43 -5 80 24 69 101 93 166 51z m271 -32 c-20 -3 -28 -10 -28 -24 0 -14 7 -19
28 -20 l27 -2 -27 -4 c-19 -3 -28 -10 -28 -23 0 -13 9 -20 28 -23 25 -4 25 -4
-5 -6 l-33 -1 0 55 0 55 33 -1 c30 -2 30 -2 5 -6z m445 -96 c31 -4 31 -4 -5
-5 l-38 -2 2 58 2 57 3 -52 c4 -50 5 -52 36 -56z m-114 65 c-12 -5 -11 -59 1
-65 6 -3 5 -4 -2 -3 -7 1 -14 17 -16 34 -2 18 -8 32 -13 32 -5 0 -4 6 3 13 9
10 16 11 24 3 7 -6 8 -12 3 -14z m-269 -27 c0 -5 -5 -3 -10 5 -5 8 -10 20 -10
25 0 6 5 3 10 -5 5 -8 10 -19 10 -25z m34 -8 c-16 -33 -34 -41 -34 -16 0 6 4
8 9 5 5 -3 14 8 21 24 7 17 15 29 17 27 2 -3 -4 -21 -13 -40z m59 33 c-33 -13
-28 -23 7 -18 17 3 30 1 30 -4 0 -4 -14 -8 -31 -8 -36 0 -35 -21 2 -31 21 -6
21 -7 3 -8 -38 -2 -58 41 -32 67 7 7 19 12 28 11 9 0 6 -4 -7 -9z m69 -34 c-6
-48 -12 -46 -12 5 0 22 4 38 8 35 4 -3 6 -21 4 -40z m43 34 c3 -6 -1 -7 -9 -4
-18 7 -21 14 -7 14 6 0 13 -4 16 -10z m269 4 c24 -9 21 -61 -4 -69 -39 -12
-66 35 -38 63 14 14 20 14 42 6z m104 -49 c-3 -44 -6 -50 -26 -51 -18 -1 -19
-1 -2 3 11 2 20 11 20 18 0 9 -6 12 -15 9 -19 -8 -45 13 -45 35 0 25 20 41 47
39 22 -2 24 -6 21 -53z m-361 -7 c-3 -7 -5 -2 -5 12 0 14 2 19 5 13 2 -7 2
-19 0 -25z"/>
<path d="M1783 12743 c-7 -3 -13 -17 -13 -33 0 -28 14 -41 38 -33 6 3 12 17
12 33 0 28 -14 41 -37 33z"/>
<path d="M1095 12700 c-11 -17 5 -32 21 -19 8 6 14 15 14 20 0 12 -27 11 -35
-1z"/>
<path d="M1605 12700 c-11 -17 5 -32 21 -19 8 6 14 15 14 20 0 12 -27 11 -35
-1z"/>
<path d="M288 12053 c-15 -4 -18 -16 -18 -84 l0 -79 54 0 c46 0 54 -3 59 -21
3 -12 10 -18 16 -14 16 9 15 195 -1 196 -41 4 -95 5 -110 2z m80 -50 c-16 -2
-40 -2 -55 0 -16 2 -3 4 27 4 30 0 43 -2 28 -4z m0 -20 c-16 -2 -40 -2 -55 0
-16 2 -3 4 27 4 30 0 43 -2 28 -4z m-35 -30 c-7 -2 -21 -2 -30 0 -10 3 -4 5
12 5 17 0 24 -2 18 -5z"/>
<path d="M232 11868 c3 -8 29 -14 71 -16 55 -2 67 0 67 13 0 12 -14 15 -71 15
-52 0 -70 -3 -67 -12z"/>
<path d="M915 11970 c-4 -6 5 -10 20 -10 15 0 24 4 20 10 -3 6 -12 10 -20 10
-8 0 -17 -4 -20 -10z"/>
<path d="M275 11560 c-12 -19 10 -32 51 -28 27 2 39 8 39 18 0 19 -79 27 -90
10z"/>
<path d="M275 11490 c-12 -19 10 -32 51 -28 27 2 39 8 39 18 0 19 -79 27 -90
10z"/>
<path d="M273 11408 c2 -8 21 -13 47 -13 26 0 45 5 48 13 2 8 -11 12 -48 12
-37 0 -50 -4 -47 -12z"/>
<path d="M1594 11486 c-9 -24 4 -48 23 -44 12 2 18 12 18 28 0 29 -32 41 -41
16z"/>
<path d="M348 11099 c-10 -5 -18 -22 -18 -37 0 -19 -17 -44 -62 -89 -49 -49
-60 -65 -50 -75 10 -10 26 1 75 50 45 45 70 62 89 62 17 0 31 8 37 19 9 17 7
19 -22 17 -30 -1 -32 1 -31 32 1 17 1 32 0 32 0 0 -9 -5 -18 -11z"/>
<path d="M714 11006 c-9 -24 4 -48 23 -44 12 2 18 12 18 28 0 29 -32 41 -41
16z"/>
<path d="M1050 11036 c-28 -35 11 -93 48 -70 35 22 22 84 -18 84 -10 0 -23 -7
-30 -14z"/>
<path d="M1170 11030 c0 -17 5 -21 28 -18 16 2 27 9 27 18 0 9 -11 16 -27 18
-23 3 -28 -1 -28 -18z"/>
<path d="M974 10526 c-9 -24 4 -48 23 -44 12 2 18 12 18 28 0 29 -32 41 -41
16z"/>
<path d="M213 10128 c2 -9 33 -13 107 -13 74 0 105 4 108 13 3 9 -23 12 -108
12 -85 0 -111 -3 -107 -12z"/>
<path d="M240 10090 c0 -6 33 -10 80 -10 47 0 80 4 80 10 0 6 -33 10 -80 10
-47 0 -80 -4 -80 -10z"/>
<path d="M240 10030 c0 -30 7 -47 25 -65 53 -54 135 -15 135 65 l0 40 -80 0
-80 0 0 -40z m110 10 c11 -11 20 -26 20 -34 0 -20 -28 -46 -50 -46 -22 0 -50
26 -50 46 0 16 35 54 50 54 6 0 19 -9 30 -20z"/>
<path d="M295 10034 c-19 -20 -16 -43 8 -58 20 -13 50 2 55 26 3 16 -23 48
-38 48 -5 0 -16 -7 -25 -16z m43 -27 c2 -12 -3 -17 -17 -17 -12 0 -21 6 -21
13 0 31 32 34 38 4z"/>
<path d="M310 10010 c0 -5 5 -10 10 -10 6 0 10 5 10 10 0 6 -4 10 -10 10 -5 0
-10 -4 -10 -10z"/>
<path d="M310 9656 c0 -18 -31 -29 -55 -20 -14 6 -16 3 -11 -13 8 -26 -2 -53
-20 -53 -8 0 -14 -4 -14 -10 0 -5 6 -10 14 -10 18 0 29 -31 20 -55 -6 -14 -3
-16 13 -11 26 8 53 -2 53 -20 0 -8 5 -14 10 -14 6 0 10 6 10 14 0 18 31 29 55
19 15 -5 17 -3 12 12 -10 24 1 55 19 55 8 0 14 5 14 10 0 6 -6 10 -14 10 -18
0 -29 31 -19 55 5 15 3 17 -12 12 -24 -10 -55 1 -55 19 0 8 -4 14 -10 14 -5 0
-10 -6 -10 -14z m50 -56 c11 -11 20 -29 20 -40 0 -26 -34 -60 -60 -60 -26 0
-60 34 -60 60 0 26 34 60 60 60 11 0 29 -9 40 -20z"/>
<path d="M286 9591 c-18 -20 -19 -51 -1 -54 6 -1 11 8 13 21 2 14 10 22 22 22
12 0 20 -8 22 -22 3 -26 21 -27 26 -3 5 21 -26 55 -48 55 -9 0 -25 -9 -34 -19z"/>
<path d="M310 9560 c0 -5 5 -10 10 -10 6 0 10 5 10 10 0 6 -4 10 -10 10 -5 0
-10 -4 -10 -10z"/>
<path d="M307 9534 c-13 -13 -7 -24 14 -24 11 0 19 5 17 12 -5 14 -22 21 -31
12z"/>
<path d="M308 9173 c6 -2 18 -2 25 0 6 3 1 5 -13 5 -14 0 -19 -2 -12 -5z"/>
<path d="M270 9130 c-13 -13 -20 -33 -20 -59 0 -22 -3 -46 -6 -55 -5 -14 5
-16 76 -16 71 0 81 2 76 16 -3 9 -6 33 -6 55 0 48 -28 79 -70 79 -17 0 -39 -9
-50 -20z"/>
<path d="M308 8983 c6 -2 18 -2 25 0 6 3 1 5 -13 5 -14 0 -19 -2 -12 -5z"/>
<path d="M744 9086 c-9 -24 4 -48 23 -44 12 2 18 12 18 28 0 29 -32 41 -41 16z"/>
<path d="M1264 9086 c-9 -24 4 -48 23 -44 12 2 18 12 18 28 0 29 -32 41 -41
16z"/>
<path d="M259 8661 c-39 -40 -39 -82 0 -122 20 -20 39 -29 61 -29 43 0 90 47
90 90 0 43 -47 90 -90 90 -22 0 -41 -9 -61 -29z m71 -23 c0 -17 7 -40 17 -50
22 -25 8 -36 -17 -13 -21 19 -29 95 -10 95 6 0 10 -14 10 -32z"/>
<path d="M1154 8606 c-9 -24 4 -48 23 -44 12 2 18 12 18 28 0 29 -32 41 -41
16z"/>
<path d="M1244 8606 c-9 -24 4 -48 23 -44 12 2 18 12 18 28 0 29 -32 41 -41
16z"/>
<path d="M14732 12760 c0 -41 2 -47 7 -25 9 43 38 45 44 3 l5 -33 -2 35 c-1
28 -5 35 -21 35 -11 0 -23 9 -27 20 -3 11 -6 -4 -6 -35z"/>
<path d="M15093 12760 c0 -30 2 -43 4 -27 2 15 2 39 0 55 -2 15 -4 2 -4 -28z"/>
<path d="M15243 12760 c0 -30 1 -47 4 -37 5 18 5 18 26 0 22 -18 22 -18 5 3
-17 19 -17 21 0 39 17 19 17 19 -5 1 -21 -18 -22 -18 -26 16 -2 20 -4 11 -4
-22z"/>
<path d="M14814 12766 c-11 -28 1 -51 26 -53 22 -1 22 -1 3 4 -31 6 -29 23 2
23 14 0 25 4 25 9 0 4 -11 6 -25 3 -28 -5 -35 14 -7 21 16 4 16 5 -1 6 -10 0
-20 -5 -23 -13z"/>
<path d="M14890 12765 c-22 -27 17 -72 41 -48 6 6 2 9 -13 9 -17 -1 -23 5 -23
19 0 14 6 20 22 19 12 0 20 3 17 8 -8 13 -30 9 -44 -7z"/>
<path d="M14973 12773 c-7 -2 -13 -17 -12 -31 l1 -27 7 25 c11 39 39 38 44 -2
l5 -33 -2 35 c-1 34 -15 45 -43 33z"/>
<path d="M15049 12764 c-14 -18 -3 -45 22 -51 8 -3 7 0 -3 7 -10 6 -18 17 -18
25 0 8 8 19 18 24 9 6 12 11 6 11 -6 0 -17 -7 -25 -16z"/>
<path d="M15130 12765 c-17 -21 -2 -50 26 -50 14 0 19 7 19 30 0 34 -24 45
-45 20z m40 -20 c0 -25 -23 -35 -35 -15 -10 16 2 40 20 40 9 0 15 -9 15 -25z"/>
<path d="M15313 12745 c0 -22 2 -30 4 -17 2 12 2 30 0 40 -3 9 -5 -1 -4 -23z"/>
<path d="M15341 12741 c1 -36 1 -36 8 -6 8 36 32 39 42 5 l7 -25 1 28 c1 39
29 35 34 -5 l5 -33 -2 35 c-1 35 -1 35 -48 36 l-48 1 1 -36z"/>
<path d="M11370 10875 l0 -1225 2090 0 2090 0 0 1225 0 1225 -2090 0 -2090 0
0 -1225z m538 -697 c17 -17 15 -73 -3 -88 -33 -28 -65 24 -45 74 10 28 29 33
48 14z m117 -43 c0 -47 -2 -50 -25 -50 -22 0 -25 5 -28 39 -4 52 3 68 30 64
20 -3 23 -9 23 -53z m73 43 c17 -17 15 -73 -3 -88 -33 -28 -65 24 -45 74 10
28 29 33 48 14z"/>
<path d="M11874 10166 c-9 -23 0 -69 14 -74 8 -2 12 10 12 42 0 44 -15 62 -26
32z"/>
<path d="M11984 10166 c-9 -22 0 -69 13 -73 15 -5 27 38 18 66 -7 24 -23 27
-31 7z"/>
<path d="M12064 10166 c-9 -23 0 -69 14 -74 8 -2 12 10 12 42 0 44 -15 62 -26
32z"/>
<path d="M3165 11440 c-3 -5 1 -10 10 -10 9 0 13 5 10 10 -3 6 -8 10 -10 10
-2 0 -7 -4 -10 -10z"/>
<path d="M3660 11424 c0 -21 -3 -24 -20 -19 -28 9 -50 -11 -50 -45 0 -34 16
-47 58 -47 l32 0 0 69 c0 39 -4 68 -10 68 -5 0 -10 -12 -10 -26z m-5 -64 c0
-29 -38 -41 -48 -16 -10 26 4 47 27 44 15 -2 21 -10 21 -28z"/>
<path d="M3341 11428 c0 -10 -6 -18 -12 -18 -8 0 -8 -4 -1 -13 6 -6 12 -28 14
-47 2 -27 8 -36 26 -38 27 -4 29 14 2 21 -25 7 -27 52 -2 66 15 9 15 10 0 11
-9 0 -19 8 -21 18 -4 16 -5 16 -6 0z"/>
<path d="M3173 11360 c0 -30 2 -43 4 -27 2 15 2 39 0 55 -2 15 -4 2 -4 -28z"/>
<path d="M3214 11401 c-8 -8 -4 -80 5 -86 6 -3 11 12 13 32 2 31 7 39 26 41
20 3 22 -1 22 -37 0 -23 5 -41 10 -41 14 0 12 76 -2 88 -12 10 -65 12 -74 3z"/>
<path d="M3404 11401 c-8 -9 -4 -80 6 -86 6 -4 10 8 10 28 0 25 6 39 23 50
l22 15 -28 -2 c-16 0 -31 -3 -33 -5z"/>
<path d="M3482 11363 l3 -48 38 0 37 -1 0 49 c0 29 -4 46 -10 42 -5 -3 -10
-22 -10 -41 0 -27 -4 -34 -20 -34 -16 0 -20 7 -20 34 0 19 -5 38 -11 41 -7 5
-9 -9 -7 -42z"/>
<path d="M3717 11392 c-22 -24 -21 -45 3 -67 14 -13 26 -15 47 -9 l28 8 -34 5
c-48 8 -53 31 -7 31 37 0 47 15 24 38 -17 17 -42 15 -61 -6z m53 -7 c11 -13 8
-15 -20 -15 -28 0 -31 2 -20 15 7 8 16 15 20 15 4 0 13 -7 20 -15z"/>
<path d="M3821 11355 c1 -27 3 -41 6 -30 2 11 6 30 9 43 2 12 11 22 19 22 8 0
15 4 15 9 0 5 -11 8 -25 7 -23 -1 -25 -4 -24 -51z"/>
<path d="M3440 10975 l0 -35 -222 -3 -223 -2 228 -3 227 -2 0 40 c0 22 -2 40
-5 40 -3 0 -5 -16 -5 -35z"/>
<path d="M5628 11003 c7 -3 16 -2 19 1 4 3 -2 6 -13 5 -11 0 -14 -3 -6 -6z"/>
<path d="M5742 10985 c0 -16 2 -22 5 -12 2 9 2 23 0 30 -3 6 -5 -1 -5 -18z"/>
<path d="M5795 11000 c3 -5 15 -10 26 -10 10 0 19 5 19 10 0 6 -12 10 -26 10
-14 0 -23 -4 -19 -10z"/>
<path d="M8268 10946 l-3 -65 68 -3 67 -3 0 68 0 67 -64 0 -64 0 -4 -64z m58
27 c-3 -8 -6 -21 -6 -29 0 -8 -4 -14 -10 -14 -5 0 -10 9 -10 20 0 11 -5 20
-11 20 -8 0 -8 4 1 14 14 18 43 9 36 -11z m41 -61 c-8 -10 -13 -10 -24 0 -10
8 -11 14 -4 16 6 2 11 13 11 25 0 21 1 21 14 -3 8 -17 9 -29 3 -38z"/>
<path d="M8990 10932 c0 -5 14 -7 30 -4 17 2 30 6 30 8 0 2 -13 4 -30 4 -16 0
-30 -4 -30 -8z"/>
<path d="M6668 10923 c34 -2 88 -2 120 0 31 2 3 3 -63 3 -66 0 -92 -1 -57 -3z"/>
<path d="M7018 10923 c34 -2 90 -2 125 0 34 2 6 3 -63 3 -69 0 -97 -1 -62 -3z"/>
<path d="M3480 10850 l0 -65 62 5 62 5 4 57 3 56 -66 4 -65 3 0 -65z m56 39
c3 -6 2 -14 -4 -18 -5 -3 -12 -15 -15 -26 -4 -18 -5 -18 -6 3 0 12 -6 22 -12
22 -8 0 -8 5 1 15 15 18 26 19 36 4z m46 -53 c6 4 9 1 6 -7 -3 -8 -13 -14 -23
-14 -10 0 -20 6 -23 14 -3 8 0 11 7 7 7 -5 12 2 12 16 l2 23 4 -23 c3 -12 9
-19 15 -16z"/>
<path d="M8991 10873 c0 -29 2 -33 8 -18 5 11 6 25 4 32 -3 7 7 13 24 16 27 4
27 4 -4 6 -32 1 -33 0 -32 -36z"/>
<path d="M3275 10889 c-10 -15 3 -25 16 -12 7 7 7 13 1 17 -6 3 -14 1 -17 -5z"/>
<path d="M3100 10881 c0 -17 18 -21 24 -6 3 9 0 15 -9 15 -8 0 -15 -4 -15 -9z"/>
<path d="M3170 10875 c0 -8 5 -15 10 -15 6 0 10 7 10 15 0 8 -4 15 -10 15 -5
0 -10 -7 -10 -15z"/>
<path d="M3438 10828 c5 -107 9 -117 11 -25 0 48 -2 87 -6 87 -5 0 -7 -28 -5
-62z"/>
<path d="M9260 10886 c0 -9 30 -14 35 -6 4 6 -3 10 -14 10 -12 0 -21 -2 -21
-4z"/>
<path d="M9332 10855 c0 -23 3 -30 5 -17 2 12 12 22 21 23 14 0 14 2 2 6 -8 3
-18 11 -22 17 -4 6 -7 -7 -6 -29z"/>
<path d="M9497 10883 c-4 -3 -7 -11 -7 -17 0 -6 5 -5 12 2 6 6 9 14 7 17 -3 3
-9 2 -12 -2z"/>
<path d="M10020 10877 c0 -10 -6 -20 -14 -23 -9 -3 -12 -12 -9 -21 5 -13 8
-12 15 6 9 24 28 20 28 -7 0 -13 3 -13 12 -4 9 9 10 15 2 20 -6 4 -16 16 -22
27 -10 18 -11 18 -12 2z"/>
<path d="M9394 10855 c-8 -19 4 -35 24 -34 14 1 14 2 -1 6 -13 3 -17 11 -14
24 6 22 -1 26 -9 4z"/>
<path d="M9551 10843 c2 -25 2 -26 6 -5 3 13 10 22 16 19 7 -2 21 -1 32 4 15
6 11 8 -17 8 -35 1 -38 -1 -37 -26z"/>
<path d="M9710 10845 c0 -14 2 -25 4 -25 2 0 6 11 8 25 3 14 1 25 -3 25 -5 0
-9 -11 -9 -25z"/>
<path d="M9784 10855 c-8 -19 4 -35 24 -34 14 1 14 2 -1 6 -13 3 -17 11 -14
24 6 22 -1 26 -9 4z"/>
<path d="M9860 10861 c13 -10 13 -11 0 -11 -13 0 -13 -2 -1 -9 11 -7 10 -10
-5 -14 -16 -4 -15 -5 4 -6 19 -1 23 4 20 21 -2 12 -10 23 -18 25 -13 4 -13 3
0 -6z"/>
<path d="M9904 10855 c-3 -8 -4 -20 -2 -27 3 -7 7 -1 10 15 6 29 1 36 -8 12z"/>
<path d="M9938 10843 c5 -21 7 -23 10 -9 2 10 0 22 -6 28 -6 6 -7 0 -4 -19z"/>
<path d="M10132 10864 c9 -3 19 -15 22 -27 4 -18 4 -18 3 3 -1 17 -8 25 -22
27 -14 1 -15 0 -3 -3z"/>
<path d="M10186 10861 c-4 -5 3 -7 14 -4 23 6 26 13 6 13 -8 0 -17 -4 -20 -9z"/>
<path d="M3256 10845 c-3 -9 -6 -33 -5 -53 1 -38 3 -36 13 10 4 19 11 26 21
22 8 -4 15 -12 15 -20 0 -8 10 -14 25 -14 18 0 25 5 25 20 0 15 -7 20 -27 20
-14 0 -34 7 -43 15 -16 14 -18 14 -24 0z"/>
<path d="M9645 10850 c-3 -5 -1 -10 4 -10 6 0 11 5 11 10 0 6 -2 10 -4 10 -3
0 -8 -4 -11 -10z"/>
<path d="M3087 10843 c-4 -3 -7 -13 -6 -22 0 -12 3 -11 9 4 7 16 9 10 11 -25
1 -30 3 -37 7 -20 4 23 5 24 13 5 6 -16 8 -14 8 13 1 19 5 31 11 27 6 -3 7 1
4 9 -6 16 -45 22 -57 9z"/>
<path d="M3165 10823 c0 -16 5 -34 11 -40 10 -10 15 -6 23 18 12 35 7 49 -17
49 -12 0 -17 -8 -17 -27z"/>
<path d="M9476 10834 c-5 -13 -3 -14 6 -6 7 5 22 12 33 15 16 4 14 5 -6 6 -17
1 -29 -5 -33 -15z"/>
<path d="M7923 10833 c81 -2 213 -2 295 0 81 1 14 3 -148 3 -162 0 -229 -2
-147 -3z"/>
<path d="M10180 10829 c0 -5 7 -9 15 -9 8 0 15 -5 15 -11 0 -6 -7 -8 -17 -4
-14 5 -15 3 -6 -6 6 -6 16 -8 22 -5 18 11 13 33 -9 39 -11 3 -20 1 -20 -4z"/>
<path d="M8409 10817 c4 -4 75 -6 157 -5 l149 3 -157 5 c-86 3 -154 2 -149 -3z"/>
<path d="M9658 10823 c7 -3 16 -2 19 1 4 3 -2 6 -13 5 -11 0 -14 -3 -6 -6z"/>
<path d="M10610 10820 c0 -5 5 -10 10 -10 6 0 10 5 10 10 0 6 -4 10 -10 10 -5
0 -10 -4 -10 -10z"/>
<path d="M10594 10788 c-4 -7 -3 -8 4 -4 8 5 12 0 12 -13 0 -15 6 -21 23 -20
12 0 16 3 10 6 -7 2 -13 13 -13 24 0 21 -25 26 -36 7z"/>
<path d="M7483 10783 c15 -2 39 -2 55 0 15 2 2 4 -28 4 -30 0 -43 -2 -27 -4z"/>
<path d="M10576 10726 c7 -18 39 -22 49 -6 3 6 -1 7 -10 4 -8 -4 -22 -1 -30 6
-13 11 -14 10 -9 -4z"/>
<path d="M6450 10710 c0 -5 5 -10 10 -10 6 0 10 5 10 10 0 6 -4 10 -10 10 -5
0 -10 -4 -10 -10z"/>
<path d="M4548 10703 c7 -3 16 -2 19 1 4 3 -2 6 -13 5 -11 0 -14 -3 -6 -6z"/>
<path d="M10630 10700 c-22 -7 -21 -8 13 -9 20 -1 37 4 37 9 0 11 -14 11 -50
0z"/>
<path d="M4686 10664 c-8 -21 -8 -24 3 -24 5 0 11 9 14 20 6 24 -8 27 -17 4z"/>
<path d="M6450 10636 c0 -25 5 -46 10 -46 6 0 10 9 10 20 0 10 9 24 21 31 23
12 17 23 -18 34 -22 6 -23 3 -23 -39z"/>
<path d="M6261 10662 c-19 -6 -1 -22 25 -22 13 0 24 6 24 13 0 12 -25 17 -49
9z"/>
<path d="M6368 10663 c-27 -7 -21 -23 7 -23 14 0 25 4 25 9 0 13 -12 18 -32
14z"/>
<path d="M6575 10660 c-8 -13 20 -24 36 -15 8 6 7 10 -2 16 -18 11 -26 11 -34
-1z"/>
<path d="M6685 10659 c-10 -15 1 -23 20 -15 9 3 13 10 10 16 -8 13 -22 13 -30
-1z"/>
<path d="M6785 10660 c-3 -6 1 -13 10 -16 19 -8 30 0 20 15 -8 14 -22 14 -30
1z"/>
<path d="M6890 10655 c0 -10 7 -15 18 -13 21 4 19 22 -2 26 -10 2 -16 -3 -16
-13z"/>
<path d="M6995 10660 c-3 -6 1 -13 10 -16 19 -8 30 0 20 15 -8 14 -22 14 -30
1z"/>
<path d="M7100 10655 c0 -10 7 -15 18 -13 21 4 19 22 -2 26 -10 2 -16 -3 -16
-13z"/>
<path d="M7207 10664 c-9 -10 2 -24 19 -24 8 0 14 7 14 15 0 15 -21 21 -33 9z"/>
<path d="M7310 10655 c0 -10 7 -15 18 -13 21 4 19 22 -2 26 -10 2 -16 -3 -16
-13z"/>
<path d="M7415 10660 c-8 -12 20 -24 35 -15 6 3 8 11 5 16 -8 12 -32 12 -40
-1z"/>
<path d="M7520 10655 c0 -10 7 -15 18 -13 21 4 19 22 -2 26 -10 2 -16 -3 -16
-13z"/>
<path d="M7627 10664 c-9 -10 2 -24 19 -24 8 0 14 7 14 15 0 15 -21 21 -33 9z"/>
<path d="M7730 10655 c0 -10 7 -15 18 -13 21 4 19 22 -2 26 -10 2 -16 -3 -16
-13z"/>
<path d="M7835 10660 c-8 -12 20 -24 35 -15 6 3 8 11 5 16 -8 12 -32 12 -40
-1z"/>
<path d="M7940 10661 c0 -14 18 -23 31 -15 8 4 7 9 -2 15 -18 11 -29 11 -29 0z"/>
<path d="M8056 10660 c-15 -5 -16 -9 -7 -14 7 -5 18 -3 24 3 14 14 6 20 -17
11z"/>
<path d="M8152 10658 c5 -15 28 -18 29 -3 0 6 -7 12 -17 13 -10 3 -15 -1 -12
-10z"/>
<path d="M8255 10661 c-3 -5 -1 -12 5 -16 12 -7 30 2 30 16 0 12 -27 12 -35 0z"/>
<path d="M8363 10658 c2 -7 10 -13 17 -13 7 0 15 6 18 13 2 7 -5 12 -18 12
-13 0 -20 -5 -17 -12z"/>
<path d="M8463 10658 c2 -7 10 -13 17 -13 7 0 15 6 18 13 2 7 -5 12 -18 12
-13 0 -20 -5 -17 -12z"/>
<path d="M8570 10662 c0 -15 11 -21 27 -15 12 5 12 7 1 14 -17 11 -28 11 -28
1z"/>
<path d="M8676 10661 c-3 -5 0 -11 8 -14 15 -6 26 1 26 15 0 11 -27 10 -34 -1z"/>
<path d="M8780 10662 c0 -14 11 -21 26 -15 21 8 17 23 -6 23 -11 0 -20 -4 -20
-8z"/>
<path d="M8880 10661 c0 -11 26 -22 34 -14 12 12 5 23 -14 23 -11 0 -20 -4
-20 -9z"/>
<path d="M8990 10660 c0 -5 9 -10 20 -10 11 0 20 5 20 10 0 6 -9 10 -20 10
-11 0 -20 -4 -20 -10z"/>
<path d="M9090 10660 c0 -5 12 -10 26 -10 14 0 23 4 19 10 -3 6 -15 10 -26 10
-10 0 -19 -4 -19 -10z"/>
<path d="M9200 10660 c0 -5 9 -10 20 -10 11 0 20 5 20 10 0 6 -9 10 -20 10
-11 0 -20 -4 -20 -10z"/>
<path d="M9303 10645 c0 -14 3 -25 8 -25 5 0 9 7 9 15 0 8 7 15 16 15 8 0 12
5 9 10 -3 6 -14 10 -24 10 -13 0 -18 -8 -18 -25z"/>
<path d="M9410 10660 c0 -5 9 -10 20 -10 11 0 20 5 20 10 0 6 -9 10 -20 10
-11 0 -20 -4 -20 -10z"/>
<path d="M9510 10660 c0 -5 12 -10 26 -10 14 0 23 4 19 10 -3 6 -15 10 -26 10
-10 0 -19 -4 -19 -10z"/>
<path d="M9620 10660 c0 -5 9 -10 20 -10 11 0 20 5 20 10 0 6 -9 10 -20 10
-11 0 -20 -4 -20 -10z"/>
<path d="M9720 10660 c0 -5 9 -10 20 -10 11 0 20 5 20 10 0 6 -9 10 -20 10
-11 0 -20 -4 -20 -10z"/>
<path d="M9830 10660 c0 -5 9 -10 20 -10 11 0 20 5 20 10 0 6 -9 10 -20 10
-11 0 -20 -4 -20 -10z"/>
<path d="M9930 10660 c0 -5 9 -10 20 -10 11 0 20 5 20 10 0 6 -9 10 -20 10
-11 0 -20 -4 -20 -10z"/>
<path d="M10040 10660 c0 -5 9 -10 20 -10 11 0 20 5 20 10 0 6 -9 10 -20 10
-11 0 -20 -4 -20 -10z"/>
<path d="M10140 10660 c0 -5 9 -10 20 -10 11 0 20 5 20 10 0 6 -9 10 -20 10
-11 0 -20 -4 -20 -10z"/>
<path d="M10250 10660 c0 -5 9 -10 20 -10 11 0 20 5 20 10 0 6 -9 10 -20 10
-11 0 -20 -4 -20 -10z"/>
<path d="M10350 10660 c0 -5 9 -10 19 -10 11 0 23 5 26 10 4 6 -5 10 -19 10
-14 0 -26 -4 -26 -10z"/>
<path d="M10460 10660 c0 -5 9 -10 20 -10 11 0 20 5 20 10 0 6 -9 10 -20 10
-11 0 -20 -4 -20 -10z"/>
<path d="M10560 10660 c0 -5 11 -10 25 -10 14 0 25 5 25 10 0 6 -11 10 -25 10
-14 0 -25 -4 -25 -10z"/>
<path d="M10670 10660 c0 -5 9 -10 20 -10 11 0 20 5 20 10 0 6 -9 10 -20 10
-11 0 -20 -4 -20 -10z"/>
<path d="M10770 10660 c0 -5 11 -10 25 -10 14 0 25 5 25 10 0 6 -11 10 -25 10
-14 0 -25 -4 -25 -10z"/>
<path d="M10880 10660 c0 -5 9 -10 20 -10 11 0 20 5 20 10 0 6 -9 10 -20 10
-11 0 -20 -4 -20 -10z"/>
<path d="M10980 10660 c0 -5 9 -10 20 -10 11 0 20 5 20 10 0 6 -9 10 -20 10
-11 0 -20 -4 -20 -10z"/>
<path d="M3215 10650 c3 -5 15 -10 26 -10 11 0 17 5 14 10 -3 6 -15 10 -26 10
-11 0 -17 -4 -14 -10z"/>
<path d="M3320 10650 c0 -5 9 -10 20 -10 11 0 20 5 20 10 0 6 -9 10 -20 10
-11 0 -20 -4 -20 -10z"/>
<path d="M3420 10650 c0 -5 9 -10 20 -10 11 0 20 5 20 10 0 6 -9 10 -20 10
-11 0 -20 -4 -20 -10z"/>
<path d="M3525 10650 c-4 -6 5 -10 19 -10 14 0 26 5 26 10 0 6 -9 10 -19 10
-11 0 -23 -4 -26 -10z"/>
<path d="M3630 10650 c0 -5 9 -10 20 -10 11 0 20 5 20 10 0 6 -9 10 -20 10
-11 0 -20 -4 -20 -10z"/>
<path d="M3735 10650 c-4 -6 5 -10 19 -10 14 0 26 5 26 10 0 6 -9 10 -19 10
-11 0 -23 -4 -26 -10z"/>
<path d="M3840 10650 c0 -5 9 -10 20 -10 11 0 20 5 20 10 0 6 -9 10 -20 10
-11 0 -20 -4 -20 -10z"/>
<path d="M3950 10650 c0 -5 9 -10 20 -10 11 0 20 5 20 10 0 6 -9 10 -20 10
-11 0 -20 -4 -20 -10z"/>
<path d="M4050 10650 c0 -5 9 -10 20 -10 11 0 20 5 20 10 0 6 -9 10 -20 10
-11 0 -20 -4 -20 -10z"/>
<path d="M4160 10650 c0 -5 9 -10 20 -10 11 0 20 5 20 10 0 6 -9 10 -20 10
-11 0 -20 -4 -20 -10z"/>
<path d="M4260 10650 c0 -5 9 -10 20 -10 11 0 20 5 20 10 0 6 -9 10 -20 10
-11 0 -20 -4 -20 -10z"/>
<path d="M4370 10650 c0 -5 9 -10 20 -10 11 0 20 5 20 10 0 6 -9 10 -20 10
-11 0 -20 -4 -20 -10z"/>
<path d="M4470 10650 c0 -5 9 -10 20 -10 11 0 20 5 20 10 0 6 -9 10 -20 10
-11 0 -20 -4 -20 -10z"/>
<path d="M4575 10650 c3 -5 15 -10 26 -10 10 0 19 5 19 10 0 6 -12 10 -26 10
-14 0 -23 -4 -19 -10z"/>
<path d="M4790 10650 c0 -5 9 -10 20 -10 11 0 20 5 20 10 0 6 -9 10 -20 10
-11 0 -20 -4 -20 -10z"/>
<path d="M4890 10650 c0 -5 9 -10 20 -10 11 0 20 5 20 10 0 6 -9 10 -20 10
-11 0 -20 -4 -20 -10z"/>
<path d="M4995 10650 c3 -5 15 -10 26 -10 10 0 19 5 19 10 0 6 -12 10 -26 10
-14 0 -23 -4 -19 -10z"/>
<path d="M5100 10650 c0 -5 9 -10 20 -10 11 0 20 5 20 10 0 6 -9 10 -20 10
-11 0 -20 -4 -20 -10z"/>
<path d="M5210 10650 c0 -5 9 -10 20 -10 11 0 20 5 20 10 0 6 -9 10 -20 10
-11 0 -20 -4 -20 -10z"/>
<path d="M5310 10650 c0 -5 9 -10 20 -10 11 0 20 5 20 10 0 6 -9 10 -20 10
-11 0 -20 -4 -20 -10z"/>
<path d="M5420 10650 c0 -5 9 -10 20 -10 11 0 20 5 20 10 0 6 -9 10 -20 10
-11 0 -20 -4 -20 -10z"/>
<path d="M5520 10650 c0 -5 9 -10 20 -10 11 0 20 5 20 10 0 6 -9 10 -20 10
-11 0 -20 -4 -20 -10z"/>
<path d="M5630 10650 c0 -5 6 -10 14 -10 8 0 18 5 21 10 3 6 -3 10 -14 10 -12
0 -21 -4 -21 -10z"/>
<path d="M5730 10650 c0 -5 9 -10 20 -10 11 0 20 5 20 10 0 6 -9 10 -20 10
-11 0 -20 -4 -20 -10z"/>
<path d="M5835 10650 c3 -5 12 -10 20 -10 8 0 17 5 20 10 4 6 -5 10 -20 10
-15 0 -24 -4 -20 -10z"/>
<path d="M5940 10650 c0 -5 9 -10 20 -10 11 0 20 5 20 10 0 6 -9 10 -20 10
-11 0 -20 -4 -20 -10z"/>
<path d="M6045 10650 c3 -5 12 -10 20 -10 8 0 17 5 20 10 4 6 -5 10 -20 10
-15 0 -24 -4 -20 -10z"/>
<path d="M6150 10650 c0 -5 9 -10 20 -10 11 0 20 5 20 10 0 6 -9 10 -20 10
-11 0 -20 -4 -20 -10z"/>
<path d="M11098 10653 c6 -2 18 -2 25 0 6 3 1 5 -13 5 -14 0 -19 -2 -12 -5z"/>
<path d="M3180 10581 c0 -22 16 -36 24 -22 8 12 -3 41 -15 41 -5 0 -9 -9 -9
-19z"/>
<path d="M9300 10550 c0 -27 5 -50 10 -50 6 0 10 23 10 50 0 28 -4 50 -10 50
-5 0 -10 -22 -10 -50z"/>
<path d="M6890 10570 c0 -11 5 -20 10 -20 6 0 10 9 10 20 0 11 -4 20 -10 20
-5 0 -10 -9 -10 -20z"/>
<path d="M10713 10553 c87 -2 227 -2 310 0 84 1 13 3 -158 3 -170 0 -239 -2
-152 -3z"/>
<path d="M2813 10543 c9 -2 23 -2 30 0 6 3 -1 5 -18 5 -16 0 -22 -2 -12 -5z"/>
<path d="M2883 10503 c48 -2 126 -2 175 0 48 1 8 3 -88 3 -96 0 -136 -2 -87
-3z"/>
<path d="M3258 10503 c6 -2 18 -2 25 0 6 3 1 5 -13 5 -14 0 -19 -2 -12 -5z"/>
<path d="M8478 10493 c45 -2 119 -2 165 0 45 1 8 3 -83 3 -91 0 -128 -2 -82
-3z"/>
<path d="M3180 10470 c0 -13 5 -20 13 -17 6 2 12 10 12 17 0 7 -6 15 -12 18
-8 2 -13 -5 -13 -18z"/>
<path d="M6893 10474 c-3 -8 -1 -20 6 -27 8 -8 11 -4 11 16 0 30 -7 35 -17 11z"/>
<path d="M7923 10473 c81 -2 213 -2 295 0 81 1 14 3 -148 3 -162 0 -229 -2
-147 -3z"/>
<path d="M9173 10453 c104 -2 270 -2 370 0 100 1 16 2 -188 2 -203 0 -285 -1
-182 -2z"/>
<path d="M9988 10453 c105 -2 279 -2 385 0 105 1 19 2 -193 2 -212 0 -298 -1
-192 -2z"/>
<path d="M3187 10393 c-10 -9 -9 -43 2 -43 5 0 11 6 14 13 6 17 -7 40 -16 30z"/>
<path d="M6890 10360 c0 -11 5 -20 10 -20 6 0 10 9 10 20 0 11 -4 20 -10 20
-5 0 -10 -9 -10 -20z"/>
<path d="M9093 10363 c114 -2 300 -2 415 0 114 1 20 2 -208 2 -228 0 -322 -1
-207 -2z"/>
<path d="M9943 10363 c81 -2 213 -2 295 0 81 1 14 3 -148 3 -162 0 -229 -2
-147 -3z"/>
<path d="M6590 10301 c0 -12 5 -21 10 -21 6 0 10 6 10 14 0 8 -4 18 -10 21 -5
3 -10 -3 -10 -14z"/>
<path d="M7105 10310 c-3 -5 -1 -10 4 -10 6 0 11 5 11 10 0 6 -2 10 -4 10 -3
0 -8 -4 -11 -10z"/>
<path d="M6646 10295 c-3 -8 -1 -15 4 -15 6 0 10 7 10 15 0 8 -2 15 -4 15 -2
0 -6 -7 -10 -15z"/>
<path d="M7211 10294 c0 -11 3 -14 6 -6 3 7 2 16 -1 19 -3 4 -6 -2 -5 -13z"/>
<path d="M6760 10296 c0 -2 7 -6 15 -10 8 -3 15 -1 15 4 0 6 -7 10 -15 10 -8
0 -15 -2 -15 -4z"/>
<path d="M3180 10270 c0 -11 5 -20 10 -20 6 0 10 9 10 20 0 11 -4 20 -10 20
-5 0 -10 -9 -10 -20z"/>
<path d="M6840 10271 c0 -6 4 -12 8 -15 5 -3 9 1 9 9 0 8 -4 15 -9 15 -4 0 -8
-4 -8 -9z"/>
<path d="M6988 10273 c7 -3 16 -2 19 1 4 3 -2 6 -13 5 -11 0 -14 -3 -6 -6z"/>
<path d="M7086 10264 c-5 -13 -3 -14 6 -7 7 6 20 13 28 16 10 4 8 6 -6 6 -12
1 -25 -6 -28 -15z"/>
<path d="M6620 10259 c0 -5 5 -7 10 -4 6 3 10 8 10 11 0 2 -4 4 -10 4 -5 0
-10 -5 -10 -11z"/>
<path d="M6915 10260 c3 -5 10 -10 16 -10 5 0 9 5 9 10 0 6 -7 10 -16 10 -8 0
-12 -4 -9 -10z"/>
<path d="M6887 10244 c6 -15 23 -19 23 -5 0 5 -7 11 -14 14 -10 4 -13 1 -9 -9z"/>
<path d="M3180 10165 c0 -14 5 -25 10 -25 6 0 10 11 10 25 0 14 -4 25 -10 25
-5 0 -10 -11 -10 -25z"/>
<path d="M8894 10060 c0 -69 1 -97 3 -62 2 34 2 90 0 125 -2 34 -3 6 -3 -63z"/>
<path d="M6890 10150 c0 -11 5 -20 10 -20 6 0 10 9 10 20 0 11 -4 20 -10 20
-5 0 -10 -9 -10 -20z"/>
<path d="M3180 10060 c0 -11 5 -20 10 -20 6 0 10 9 10 20 0 11 -4 20 -10 20
-5 0 -10 -9 -10 -20z"/>
<path d="M6890 10040 c0 -11 5 -20 10 -20 6 0 10 9 10 20 0 11 -4 20 -10 20
-5 0 -10 -9 -10 -20z"/>
<path d="M4568 10013 c6 -2 18 -2 25 0 6 3 1 5 -13 5 -14 0 -19 -2 -12 -5z"/>
<path d="M5078 10013 c7 -3 16 -2 19 1 4 3 -2 6 -13 5 -11 0 -14 -3 -6 -6z"/>
<path d="M4338 9993 c7 -3 16 -2 19 1 4 3 -2 6 -13 5 -11 0 -14 -3 -6 -6z"/>
<path d="M4388 9993 c7 -3 16 -2 19 1 4 3 -2 6 -13 5 -11 0 -14 -3 -6 -6z"/>
<path d="M4518 9993 c7 -3 16 -2 19 1 4 3 -2 6 -13 5 -11 0 -14 -3 -6 -6z"/>
<path d="M4908 9993 c7 -3 16 -2 19 1 4 3 -2 6 -13 5 -11 0 -14 -3 -6 -6z"/>
<path d="M4998 9993 c7 -3 16 -2 19 1 4 3 -2 6 -13 5 -11 0 -14 -3 -6 -6z"/>
<path d="M3180 9955 c0 -14 5 -25 10 -25 6 0 10 11 10 25 0 14 -4 25 -10 25
-5 0 -10 -11 -10 -25z"/>
<path d="M8208 9973 c7 -3 16 -2 19 1 4 3 -2 6 -13 5 -11 0 -14 -3 -6 -6z"/>
<path d="M8288 9973 c23 -2 59 -2 80 0 20 2 1 4 -43 4 -44 0 -61 -2 -37 -4z"/>
<path d="M6458 9963 c6 -2 18 -2 25 0 6 3 1 5 -13 5 -14 0 -19 -2 -12 -5z"/>
<path d="M6890 9945 c0 -8 5 -15 10 -15 6 0 10 7 10 15 0 8 -4 15 -10 15 -5 0
-10 -7 -10 -15z"/>
<path d="M7878 9913 c7 -3 16 -2 19 1 4 3 -2 6 -13 5 -11 0 -14 -3 -6 -6z"/>
<path d="M8388 9913 c7 -3 16 -2 19 1 4 3 -2 6 -13 5 -11 0 -14 -3 -6 -6z"/>
<path d="M4336 9895 c4 -8 8 -15 10 -15 2 0 4 7 4 15 0 8 -4 15 -10 15 -5 0
-7 -7 -4 -15z"/>
<path d="M4548 9903 c6 -2 18 -2 25 0 6 3 1 5 -13 5 -14 0 -19 -2 -12 -5z"/>
<path d="M4888 9903 c7 -3 16 -2 19 1 4 3 -2 6 -13 5 -11 0 -14 -3 -6 -6z"/>
<path d="M6841 9897 c-6 -8 -8 -17 -4 -20 7 -8 33 11 33 24 0 13 -16 11 -29
-4z"/>
<path d="M6930 9902 c0 -5 7 -16 16 -23 14 -12 16 -11 13 5 -4 20 -29 35 -29
18z"/>
<path d="M6383 9893 c20 -2 54 -2 75 0 20 2 3 4 -38 4 -41 0 -58 -2 -37 -4z"/>
<path d="M7648 9893 c7 -3 16 -2 19 1 4 3 -2 6 -13 5 -11 0 -14 -3 -6 -6z"/>
<path d="M7698 9893 c7 -3 16 -2 19 1 4 3 -2 6 -13 5 -11 0 -14 -3 -6 -6z"/>
<path d="M7828 9893 c7 -3 16 -2 19 1 4 3 -2 6 -13 5 -11 0 -14 -3 -6 -6z"/>
<path d="M8048 9893 c7 -3 16 -2 19 1 4 3 -2 6 -13 5 -11 0 -14 -3 -6 -6z"/>
<path d="M8098 9893 c7 -3 16 -2 19 1 4 3 -2 6 -13 5 -11 0 -14 -3 -6 -6z"/>
<path d="M8148 9893 c7 -3 16 -2 19 1 4 3 -2 6 -13 5 -11 0 -14 -3 -6 -6z"/>
<path d="M8218 9893 c7 -3 16 -2 19 1 4 3 -2 6 -13 5 -11 0 -14 -3 -6 -6z"/>
<path d="M8308 9893 c7 -3 16 -2 19 1 4 3 -2 6 -13 5 -11 0 -14 -3 -6 -6z"/>
<path d="M4428 9883 c7 -3 16 -2 19 1 4 3 -2 6 -13 5 -11 0 -14 -3 -6 -6z"/>
<path d="M4498 9883 c7 -3 16 -2 19 1 4 3 -2 6 -13 5 -11 0 -14 -3 -6 -6z"/>
<path d="M3180 9850 c0 -11 5 -20 10 -20 6 0 10 9 10 20 0 11 -4 20 -10 20 -5
0 -10 -9 -10 -20z"/>
<path d="M7000 9831 c0 -13 26 -32 33 -24 8 7 -11 33 -24 33 -5 0 -9 -4 -9 -9z"/>
<path d="M6765 9819 c-12 -19 5 -23 22 -6 16 16 16 17 1 17 -9 0 -20 -5 -23
-11z"/>
<path d="M7868 9803 c7 -3 16 -2 19 1 4 3 -2 6 -13 5 -11 0 -14 -3 -6 -6z"/>
<path d="M8198 9803 c7 -3 16 -2 19 1 4 3 -2 6 -13 5 -11 0 -14 -3 -6 -6z"/>
<path d="M7738 9783 c7 -3 16 -2 19 1 4 3 -2 6 -13 5 -11 0 -14 -3 -6 -6z"/>
<path d="M7808 9783 c7 -3 16 -2 19 1 4 3 -2 6 -13 5 -11 0 -14 -3 -6 -6z"/>
<path d="M7958 9783 c7 -3 16 -2 19 1 4 3 -2 6 -13 5 -11 0 -14 -3 -6 -6z"/>
<path d="M3180 9745 c0 -14 5 -25 10 -25 6 0 10 11 10 25 0 14 -4 25 -10 25
-5 0 -10 -11 -10 -25z"/>
<path d="M6695 9749 c-4 -6 -5 -13 -2 -16 7 -7 27 6 27 18 0 12 -17 12 -25 -2z"/>
<path d="M7083 9743 c9 -9 19 -14 23 -11 10 10 -6 28 -24 28 -15 0 -15 -1 1
-17z"/>
<path d="M9446 9734 c-3 -8 -2 -12 3 -9 5 3 12 1 16 -5 3 -5 -3 -10 -14 -10
-12 0 -21 -4 -21 -10 0 -5 7 -7 15 -4 8 4 22 1 30 -6 13 -11 13 -8 4 19 -13
37 -25 46 -33 25z"/>
<path d="M9957 9743 c-4 -3 -7 -11 -7 -17 0 -6 5 -5 12 2 6 6 9 14 7 17 -3 3
-9 2 -12 -2z"/>
<path d="M9872 9731 c-11 -7 -11 -9 2 -14 10 -4 16 -1 16 8 0 17 -1 17 -18 6z"/>
<path d="M6358 9723 c7 -3 16 -2 19 1 4 3 -2 6 -13 5 -11 0 -14 -3 -6 -6z"/>
<path d="M6438 9723 c12 -2 30 -2 40 0 9 3 -1 5 -23 4 -22 0 -30 -2 -17 -4z"/>
<path d="M6513 9723 c9 -2 23 -2 30 0 6 3 -1 5 -18 5 -16 0 -22 -2 -12 -5z"/>
<path d="M9551 9702 c2 -23 2 -24 6 -4 4 22 19 30 25 13 2 -5 11 -4 20 3 15
11 13 13 -17 14 -32 1 -35 -1 -34 -26z"/>
<path d="M9650 9721 c0 -7 7 -19 15 -27 19 -20 19 -5 0 20 -9 11 -15 14 -15 7z"/>
<path d="M9738 9722 c11 -7 11 -10 -2 -15 -23 -9 -20 -27 5 -27 15 0 20 5 17
22 -2 12 -10 23 -18 25 -12 4 -12 3 -2 -5z"/>
<path d="M9818 9703 c5 -21 7 -23 10 -9 2 10 0 22 -6 28 -6 6 -7 0 -4 -19z"/>
<path d="M10010 9705 c0 -14 2 -25 4 -25 2 0 6 11 8 25 3 14 1 25 -3 25 -5 0
-9 -11 -9 -25z"/>
<path d="M10061 9703 c2 -25 2 -26 6 -5 3 15 10 22 19 18 8 -3 14 -1 14 4 0 6
-9 10 -20 10 -15 0 -20 -6 -19 -27z"/>
<path d="M10118 9703 c5 -21 7 -23 10 -9 2 10 0 22 -6 28 -6 6 -7 0 -4 -19z"/>
<path d="M10157 9723 c-9 -9 -9 -43 1 -43 4 0 7 11 7 25 0 14 0 25 -1 25 0 0
-4 -3 -7 -7z"/>
<path d="M9936 9694 c-5 -14 -4 -15 9 -4 8 7 22 10 30 6 9 -3 13 -2 10 4 -10
16 -42 12 -49 -6z"/>
<path d="M10186 9693 c-6 -14 -5 -15 5 -6 7 7 10 15 7 18 -3 3 -9 -2 -12 -12z"/>
<path d="M3433 9635 c0 -38 2 -53 4 -32 2 20 2 52 0 70 -2 17 -4 1 -4 -38z"/>
<path d="M8894 9485 c0 -121 2 -169 3 -107 2 62 2 161 0 220 -1 59 -3 8 -3
-113z"/>
<path d="M9865 9690 c-19 -8 -19 -9 3 -9 12 -1 22 4 22 9 0 6 -1 10 -2 9 -2 0
-12 -4 -23 -9z"/>
<path d="M7138 9674 c-5 -4 -8 -16 -8 -28 0 -14 3 -17 11 -9 6 6 9 19 7 28 -1
9 -6 13 -10 9z"/>
<path d="M6650 9650 c0 -11 5 -20 10 -20 6 0 10 9 10 20 0 11 -4 20 -10 20 -5
0 -10 -9 -10 -20z"/>
<path d="M3180 9640 c0 -11 5 -20 10 -20 6 0 10 9 10 20 0 11 -4 20 -10 20 -5
0 -10 -9 -10 -20z"/>
<path d="M6403 9643 c32 -2 81 -2 110 0 29 2 3 3 -58 3 -60 0 -84 -1 -52 -3z"/>
<path d="M10733 9573 l-53 -4 0 -59 c0 -54 2 -60 23 -66 13 -3 41 -4 63 -2
l39 3 0 64 c0 35 -4 65 -10 66 -5 0 -34 -1 -62 -2z m7 -28 c9 -10 9 -15 1 -15
-6 0 -11 -9 -11 -20 0 -11 -4 -20 -10 -20 -5 0 -10 9 -10 20 0 11 -5 20 -11
20 -8 0 -8 5 1 15 7 8 16 15 20 15 4 0 13 -7 20 -15z m39 -69 c-4 -5 -16 -5
-26 -1 -12 5 -14 9 -5 12 6 3 12 14 12 26 0 21 1 21 14 -3 7 -14 9 -29 5 -34z"/>
<path d="M6650 9551 c0 -11 5 -23 10 -26 6 -4 10 5 10 19 0 14 -4 26 -10 26
-5 0 -10 -9 -10 -19z"/>
<path d="M7130 9550 c0 -11 5 -20 10 -20 6 0 10 9 10 20 0 11 -4 20 -10 20 -5
0 -10 -9 -10 -20z"/>
<path d="M3180 9535 c0 -14 5 -25 10 -25 6 0 10 11 10 25 0 14 -4 25 -10 25
-5 0 -10 -11 -10 -25z"/>
<path d="M6350 9538 c0 -4 14 -8 30 -8 17 0 30 2 30 4 0 2 -13 6 -30 8 -16 3
-30 1 -30 -4z"/>
<path d="M7138 9464 c-5 -4 -8 -16 -8 -28 0 -14 3 -17 11 -9 6 6 9 19 7 28 -1
9 -6 13 -10 9z"/>
<path d="M6445 9450 c3 -5 8 -10 11 -10 2 0 4 5 4 10 0 6 -5 10 -11 10 -5 0
-7 -4 -4 -10z"/>
<path d="M6650 9440 c0 -11 5 -20 10 -20 6 0 10 9 10 20 0 11 -4 20 -10 20 -5
0 -10 -9 -10 -20z"/>
<path d="M7368 9453 c18 -2 45 -2 60 0 15 2 0 4 -33 4 -33 0 -45 -2 -27 -4z"/>
<path d="M3180 9426 c0 -9 5 -16 10 -16 6 0 10 4 10 9 0 6 -4 13 -10 16 -5 3
-10 -1 -10 -9z"/>
<path d="M6650 9341 c0 -11 5 -23 10 -26 6 -4 10 5 10 19 0 14 -4 26 -10 26
-5 0 -10 -9 -10 -19z"/>
<path d="M7130 9340 c0 -11 5 -20 10 -20 6 0 10 9 10 20 0 11 -4 20 -10 20 -5
0 -10 -9 -10 -20z"/>
<path d="M3180 9325 c0 -14 5 -25 10 -25 6 0 10 11 10 25 0 14 -4 25 -10 25
-5 0 -10 -11 -10 -25z"/>
<path d="M3480 9328 c0 -5 34 -8 75 -8 41 0 75 3 75 8 0 4 -34 7 -75 7 -41 0
-75 -3 -75 -7z"/>
<path d="M5463 9333 c104 -2 270 -2 370 0 100 1 16 2 -188 2 -203 0 -285 -1
-182 -2z"/>
<path d="M6403 9333 c31 -2 83 -2 115 0 31 2 5 3 -58 3 -63 0 -89 -1 -57 -3z"/>
<path d="M7248 9333 c12 -2 32 -2 45 0 12 2 2 4 -23 4 -25 0 -35 -2 -22 -4z"/>
<path d="M7398 9333 c12 -2 30 -2 40 0 9 3 -1 5 -23 4 -22 0 -30 -2 -17 -4z"/>
<path d="M7828 9333 c188 -2 496 -2 685 0 188 1 34 2 -343 2 -377 0 -531 -1
-342 -2z"/>
<path d="M5198 9283 c83 -2 221 -2 305 0 83 1 15 3 -153 3 -168 0 -236 -2
-152 -3z"/>
<path d="M5733 9283 c42 -2 112 -2 155 0 42 1 7 3 -78 3 -85 0 -120 -2 -77 -3z"/>
<path d="M7288 9283 c7 -3 16 -2 19 1 4 3 -2 6 -13 5 -11 0 -14 -3 -6 -6z"/>
<path d="M7598 9283 c123 -2 321 -2 440 0 119 1 19 2 -223 2 -242 0 -340 -1
-217 -2z"/>
<path d="M10478 9193 c5 -163 8 -179 10 -45 1 72 -1 132 -5 132 -5 0 -7 -39
-5 -87z"/>
<path d="M4408 9253 c7 -3 16 -2 19 1 4 3 -2 6 -13 5 -11 0 -14 -3 -6 -6z"/>
<path d="M4508 9253 c7 -3 16 -2 19 1 4 3 -2 6 -13 5 -11 0 -14 -3 -6 -6z"/>
<path d="M6650 9230 c0 -11 5 -20 10 -20 6 0 10 9 10 20 0 11 -4 20 -10 20 -5
0 -10 -9 -10 -20z"/>
<path d="M7130 9229 c0 -11 5 -17 10 -14 6 3 10 13 10 21 0 8 -4 14 -10 14 -5
0 -10 -9 -10 -21z"/>
<path d="M3180 9220 c0 -11 5 -20 10 -20 6 0 10 9 10 20 0 11 -4 20 -10 20 -5
0 -10 -9 -10 -20z"/>
<path d="M9267 9223 c-10 -18 -58 -185 -55 -194 2 -5 16 36 32 91 l30 100 237
0 237 0 8 -32 c4 -18 9 -28 11 -22 2 6 -1 23 -6 37 l-11 27 -239 0 c-132 0
-242 -3 -244 -7z"/>
<path d="M3662 9113 l2 -98 3 92 4 93 382 3 382 2 -387 3 -388 2 2 -97z"/>
<path d="M4512 9203 c27 -4 27 -5 31 -96 l3 -92 2 98 2 97 -32 -1 c-30 -2 -31
-2 -6 -6z"/>
<path d="M10743 9193 c9 -2 25 -2 35 0 9 3 1 5 -18 5 -19 0 -27 -2 -17 -5z"/>
<path d="M10690 9127 c0 -31 4 -57 8 -57 10 0 9 96 -1 106 -4 4 -7 -18 -7 -49z"/>
<path d="M6650 9131 c0 -11 5 -23 10 -26 6 -4 10 5 10 19 0 14 -4 26 -10 26
-5 0 -10 -9 -10 -19z"/>
<path d="M7130 9130 c0 -11 5 -20 10 -20 6 0 10 9 10 20 0 11 -4 20 -10 20 -5
0 -10 -9 -10 -20z"/>
<path d="M9774 9135 c10 -52 31 -115 38 -115 4 0 -1 24 -11 53 -23 66 -33 89
-27 62z"/>
<path d="M3180 9115 c0 -14 5 -25 10 -25 6 0 10 11 10 25 0 14 -4 25 -10 25
-5 0 -10 -11 -10 -25z"/>
<path d="M3433 9065 c0 -27 2 -38 4 -22 2 15 2 37 0 50 -2 12 -4 0 -4 -28z"/>
<path d="M7130 9036 c0 -9 5 -16 10 -16 6 0 10 4 10 9 0 6 -4 13 -10 16 -5 3
-10 -1 -10 -9z"/>
<path d="M6650 9030 c0 -5 5 -10 10 -10 6 0 10 5 10 10 0 6 -4 10 -10 10 -5 0
-10 -4 -10 -10z"/>
<path d="M3172 8279 c1 -36 3 -43 5 -21 3 19 9 30 15 26 5 -4 5 4 -2 17 -19
37 -20 36 -18 -22z"/>
<path d="M3244 8295 c-10 -20 -24 -33 -31 -31 -7 3 -10 -1 -6 -10 8 -22 19
-17 34 19 l14 32 6 -45 6 -45 1 58 c1 31 0 57 -1 57 -2 0 -12 -16 -23 -35z"/>
<path d="M3516 8321 c-3 -4 6 -6 19 -3 34 6 34 -26 -1 -67 l-26 -31 39 1 c35
1 36 2 9 8 -27 5 -28 7 -12 20 29 24 39 50 25 67 -13 15 -45 19 -53 5z"/>
<path d="M3628 8323 c17 -2 32 -6 32 -7 0 -2 -12 -24 -26 -50 -33 -58 -24 -61
11 -3 34 59 32 67 -12 65 -37 -1 -37 -1 -5 -5z"/>
<path d="M3786 8321 c-3 -4 6 -6 19 -3 34 6 34 -26 -1 -67 l-26 -31 39 1 c35
1 36 2 9 8 -27 5 -28 7 -12 20 29 24 39 50 25 67 -13 15 -45 19 -53 5z"/>
<path d="M3882 8318 c-7 -7 -12 -26 -12 -44 0 -58 55 -74 73 -21 18 54 -26
100 -61 65z m49 -22 c8 -17 8 -29 0 -45 -24 -44 -60 -9 -47 45 8 31 33 31 47
0z"/>
<path d="M3976 8321 c-3 -4 6 -6 19 -3 34 6 34 -26 -1 -67 l-26 -31 39 1 c35
1 36 2 9 8 -27 5 -28 7 -12 20 29 24 39 50 25 67 -13 15 -45 19 -53 5z"/>
<path d="M4090 8320 c-10 -6 -11 -10 -2 -10 20 0 16 -78 -5 -83 -10 -3 0 -5
22 -5 22 0 32 2 23 5 -13 3 -18 17 -20 53 -2 41 -6 48 -18 40z"/>
<path d="M5099 8313 c-10 -12 -10 -14 -1 -9 9 5 12 -3 12 -33 0 -22 -5 -42
-12 -44 -7 -3 3 -5 22 -5 19 0 29 2 23 5 -8 3 -13 23 -13 48 0 49 -11 63 -31
38z"/>
<path d="M5200 8320 c-10 -6 -11 -10 -2 -10 20 0 16 -78 -5 -83 -10 -3 0 -5
22 -5 22 0 32 2 23 5 -13 3 -18 17 -20 53 -2 41 -6 48 -18 40z"/>
<path d="M5310 8301 c0 -26 3 -30 28 -28 21 2 27 -2 27 -18 0 -16 -6 -20 -29
-18 -21 2 -26 -1 -18 -9 6 -6 22 -8 37 -4 21 5 26 12 23 34 -2 21 -9 28 -30
30 -39 5 -35 30 5 35 31 4 31 4 -5 5 -36 2 -38 0 -38 -27z"/>
<path d="M5412 8318 c-7 -7 -12 -26 -12 -44 0 -58 55 -74 73 -21 18 54 -26
100 -61 65z m49 -22 c8 -17 8 -29 0 -45 -24 -44 -60 -9 -47 45 8 31 33 31 47
0z"/>
<path d="M5560 8320 c-10 -6 -11 -10 -2 -10 20 0 16 -78 -5 -83 -10 -3 0 -5
22 -5 22 0 32 2 23 5 -13 3 -18 17 -20 53 -2 41 -6 48 -18 40z"/>
<path d="M5640 8300 c0 -27 3 -30 24 -24 16 4 25 1 30 -11 9 -24 -3 -38 -30
-32 -13 2 -21 0 -18 -4 9 -14 41 -10 55 7 17 21 -1 49 -30 48 -33 -1 -27 34 7
39 25 4 25 4 -5 6 -30 1 -33 -1 -33 -29z"/>
<path d="M5792 8284 c-13 -26 -20 -49 -17 -52 3 -3 5 0 5 6 0 19 61 14 76 -5
12 -16 13 -15 4 10 -11 30 -39 87 -43 87 -2 0 -13 -21 -25 -46z m48 -16 c0 -4
-11 -8 -25 -8 -23 0 -24 2 -13 26 11 24 13 25 25 8 7 -10 13 -21 13 -26z"/>
<path d="M5892 8275 c1 -58 1 -59 7 -15 l6 45 14 -32 c16 -40 23 -41 42 -6
l14 26 6 -34 c5 -28 7 -25 7 21 l1 55 -20 -37 c-11 -21 -23 -38 -27 -38 -4 0
-17 17 -29 38 l-22 37 1 -60z"/>
<path d="M7002 8323 c25 -4 27 -9 31 -56 l3 -52 2 52 c2 45 5 52 25 56 12 2
-3 4 -33 4 -30 0 -43 -2 -28 -4z"/>
<path d="M7342 8278 l-2 -58 38 2 c36 1 36 1 5 5 -31 4 -32 6 -36 56 l-3 52
-2 -57z"/>
<path d="M8010 8320 c-10 -6 -11 -10 -2 -10 7 0 12 -15 12 -39 0 -22 -5 -42
-12 -44 -7 -3 3 -5 22 -5 19 0 27 2 18 5 -13 3 -18 17 -20 53 -2 41 -6 48 -18
40z"/>
<path d="M7242 8303 c-7 -7 -8 -13 -3 -13 5 0 11 -15 13 -32 2 -23 8 -33 21
-34 12 -1 13 -1 2 3 -16 5 -21 59 -6 65 5 2 4 8 -3 14 -8 8 -15 7 -24 -3z"/>
<path d="M7672 8303 c-7 -7 -8 -13 -3 -13 5 0 11 -15 13 -32 2 -23 8 -33 21
-34 12 -1 13 -1 2 3 -16 5 -21 59 -6 65 5 2 4 8 -3 14 -8 8 -15 7 -24 -3z"/>
<path d="M3328 8293 c12 -2 22 -8 22 -13 0 -5 -10 -10 -22 -12 -36 -5 -31 -43
5 -44 26 -1 28 1 25 35 -3 30 -7 36 -28 38 -22 1 -22 1 -2 -4z m20 -45 c-7
-19 -38 -22 -38 -4 0 10 9 16 21 16 12 0 19 -5 17 -12z"/>
<path d="M3385 8280 c4 -14 10 -41 14 -60 5 -28 8 -31 13 -15 3 11 13 37 22
58 9 20 14 37 11 37 -3 0 -11 -15 -19 -32 l-14 -33 -16 35 c-11 22 -15 26 -11
10z"/>
<path d="M7093 8293 c-7 -2 -13 -17 -13 -33 0 -26 16 -41 43 -39 7 0 2 4 -10
9 -31 13 -29 30 5 31 l27 1 -30 8 c-24 5 -27 8 -13 14 9 4 22 4 29 0 8 -4 9
-3 5 4 -7 12 -22 14 -43 5z"/>
<path d="M7171 8287 c-11 -14 -5 -27 13 -27 6 0 4 5 -4 10 -12 7 -10 11 10 19
15 6 19 10 9 10 -9 1 -22 -5 -28 -12z"/>
<path d="M7432 8288 c-28 -28 -1 -75 38 -63 14 4 20 15 20 35 0 36 -33 53 -58
28z m43 -28 c0 -28 -29 -40 -38 -15 -9 22 3 46 22 43 10 -2 16 -13 16 -28z"/>
<path d="M7520 8285 c-15 -18 -10 -45 12 -59 12 -7 21 -7 28 0 8 8 4 10 -12
10 -18 -1 -23 4 -23 24 0 19 5 25 22 24 12 0 20 3 17 8 -8 13 -30 9 -44 -7z"/>
<path d="M7595 8290 c-3 -5 0 -7 9 -4 8 3 21 2 28 -2 9 -6 5 -10 -12 -14 -36
-9 -34 -45 3 -46 22 -1 27 3 27 22 0 12 -3 29 -6 38 -7 18 -39 22 -49 6z m43
-42 c-7 -19 -38 -22 -38 -4 0 10 9 16 21 16 12 0 19 -5 17 -12z"/>
<path d="M7733 8260 c0 -25 2 -35 4 -22 2 12 2 32 0 45 -2 12 -4 2 -4 -23z"/>
<path d="M7772 8288 c-28 -28 -1 -75 38 -63 14 4 20 15 20 35 0 36 -33 53 -58
28z m43 -28 c0 -15 -6 -26 -16 -28 -19 -3 -31 21 -22 43 9 25 38 13 38 -15z"/>
<path d="M7861 8256 l2 -41 6 35 c8 48 38 54 44 8 l4 -33 -1 35 c-1 31 -4 35
-28 36 -26 1 -28 -1 -27 -40z"/>
<path d="M7206 8246 c4 -9 -3 -16 -18 -19 -22 -5 -22 -5 2 -4 24 2 44 37 21
37 -6 0 -8 -6 -5 -14z"/>
<path d="M3701 8224 c0 -11 3 -14 6 -6 3 7 2 16 -1 19 -3 4 -6 -2 -5 -13z"/>
<path d="M13403 7425 c0 -33 1 -52 4 -42 2 9 7 17 10 17 4 0 15 -8 27 -17 19
-18 19 -18 3 6 -15 23 -15 26 0 43 9 10 11 18 6 18 -6 0 -13 -7 -17 -15 -9
-26 -25 -17 -29 18 -2 17 -4 5 -4 -28z"/>
<path d="M13162 7418 c1 -44 2 -47 5 -15 2 20 8 35 14 32 11 -7 11 -3 3 19
-13 33 -24 14 -22 -36z"/>
<path d="M13232 7447 c-7 -16 -12 -33 -12 -38 0 -5 -4 -9 -10 -9 -5 0 -10 5
-10 12 0 6 -2 9 -5 6 -3 -3 -1 -16 4 -29 l9 -24 13 30 c8 17 18 33 22 36 5 4
7 15 5 25 -4 16 -7 14 -16 -9z"/>
<path d="M13286 7441 c-3 -5 3 -7 14 -4 11 3 20 1 20 -5 0 -5 -9 -12 -20 -15
-25 -7 -28 -47 -2 -46 10 0 12 3 5 6 -18 7 -16 33 2 33 8 0 15 -6 15 -14 0 -8
4 -17 8 -20 5 -3 6 11 3 32 -6 36 -32 55 -45 33z"/>
<path d="M13362 7408 c1 -41 1 -41 5 -8 3 19 10 38 16 42 8 5 6 8 -5 8 -15 0
-18 -8 -16 -42z"/>
<path d="M13515 7440 c-3 -5 0 -7 9 -4 8 3 21 2 28 -2 9 -6 5 -10 -12 -14 -26
-6 -36 -41 -12 -46 7 -1 8 0 2 3 -17 8 -11 33 9 33 11 0 18 -6 17 -16 0 -9 5
-19 12 -21 6 -3 10 1 8 9 -2 7 -7 25 -10 41 -6 27 -38 38 -51 17z"/>
<path d="M13597 7443 c-13 -13 -7 -31 13 -36 11 -3 20 -11 20 -17 0 -8 -8 -10
-21 -7 -16 4 -19 3 -11 -5 14 -14 42 -3 42 16 0 8 -9 18 -20 21 -26 8 -26 29
0 22 11 -3 18 -1 14 4 -6 11 -28 12 -37 2z"/>
<path d="M3176 6841 c-23 -25 -11 -48 32 -58 54 -13 49 -38 -7 -37 -39 1 -42
-1 -26 -13 25 -18 60 -17 79 3 27 27 16 43 -39 61 -44 14 -39 38 8 38 39 0 48
9 21 19 -28 11 -50 6 -68 -13z"/>
<path d="M3660 6835 c0 -22 -3 -25 -24 -19 -25 6 -56 -17 -56 -42 0 -35 20
-54 55 -51 l35 2 0 68 c0 37 -2 67 -5 67 -3 0 -5 -11 -5 -25z m-6 -50 c8 -23
-4 -45 -25 -45 -22 0 -34 22 -25 45 3 8 14 15 25 15 10 0 21 -7 25 -15z"/>
<path d="M3950 6836 c0 -19 -4 -23 -20 -19 -28 7 -50 -14 -50 -47 0 -35 18
-50 58 -47 l32 2 0 68 c0 38 -4 67 -10 67 -5 0 -10 -11 -10 -24z m0 -66 c0
-25 -4 -30 -25 -30 -21 0 -25 5 -25 30 0 25 4 30 25 30 21 0 25 -5 25 -30z"/>
<path d="M4071 6834 c-12 -15 -21 -34 -21 -44 0 -27 39 -70 64 -70 40 0 66 27
66 70 0 67 -69 95 -109 44z m77 -6 c7 -7 12 -24 12 -38 0 -52 -61 -71 -82 -25
-23 51 32 101 70 63z"/>
<path d="M4690 6850 c0 -5 5 -10 10 -10 6 0 10 5 10 10 0 6 -4 10 -10 10 -5 0
-10 -4 -10 -10z"/>
<path d="M5030 6789 c0 -44 4 -68 10 -64 6 3 10 14 10 24 0 12 12 20 38 27 28
7 38 15 40 32 5 34 -15 52 -59 52 l-39 0 0 -71z m78 29 c-2 -17 -11 -24 -30
-26 -24 -3 -28 0 -28 22 0 22 4 26 31 26 26 0 30 -3 27 -22z"/>
<path d="M5610 6837 c0 -24 -3 -27 -24 -21 -15 3 -29 -1 -40 -11 -36 -37 -7
-87 47 -81 31 3 32 4 35 61 2 32 -2 63 -7 68 -8 8 -11 3 -11 -16z m-5 -67 c0
-18 -6 -26 -23 -28 -24 -4 -38 18 -28 44 3 9 15 14 28 12 17 -2 23 -10 23 -28z"/>
<path d="M3301 6838 c0 -10 -6 -18 -12 -18 -8 0 -8 -4 -1 -13 6 -6 12 -28 14
-47 2 -27 8 -36 26 -38 27 -4 29 14 2 21 -25 7 -27 52 -2 66 15 9 15 10 0 11
-9 0 -19 8 -21 18 -4 16 -5 16 -6 0z"/>
<path d="M4620 6835 c0 -8 -5 -15 -12 -15 -9 0 -9 -3 0 -12 7 -7 12 -24 12
-38 0 -14 5 -31 12 -38 15 -15 38 -16 38 -2 0 6 -7 10 -15 10 -23 0 -20 67 3
73 16 4 16 5 0 6 -10 0 -18 8 -18 16 0 8 -4 15 -10 15 -5 0 -10 -7 -10 -15z"/>
<path d="M3374 6809 c-4 -7 2 -9 16 -7 35 5 35 -18 0 -25 -21 -5 -30 -12 -30
-27 0 -20 4 -22 53 -24 25 -2 27 1 27 34 0 20 -5 41 -12 48 -15 15 -45 16 -54
1z m46 -53 c0 -8 -5 -18 -11 -22 -14 -8 -33 11 -25 25 10 16 36 13 36 -3z"/>
<path d="M3470 6769 c0 -27 5 -49 10 -49 6 0 10 18 10 40 0 36 3 40 25 40 23
0 25 -4 25 -41 0 -24 4 -38 10 -34 13 8 13 55 0 75 -5 8 -25 15 -45 16 l-35 1
0 -48z"/>
<path d="M3714 6809 c-4 -7 2 -9 16 -7 35 5 35 -18 0 -25 -21 -5 -30 -12 -30
-27 0 -20 4 -22 53 -24 25 -2 27 1 27 34 0 20 -5 41 -12 48 -15 15 -45 16 -54
1z m46 -53 c0 -8 -5 -18 -11 -22 -14 -8 -33 11 -25 25 10 16 36 13 36 -3z"/>
<path d="M3810 6768 c0 -26 5 -48 10 -48 6 0 10 15 10 34 0 24 7 38 23 49 22
15 22 15 -10 15 -33 -1 -33 -2 -33 -50z"/>
<path d="M4210 6748 c0 -39 4 -68 10 -68 6 0 10 12 10 26 0 21 3 24 20 19 28
-9 50 11 50 45 0 34 -16 47 -57 47 l-33 0 0 -69z m74 37 c8 -23 -4 -45 -25
-45 -22 0 -34 22 -25 45 3 8 14 15 25 15 10 0 21 -7 25 -15z"/>
<path d="M4337 6802 c-22 -24 -21 -45 3 -67 14 -13 26 -15 47 -9 l28 8 -34 5
c-48 8 -53 31 -7 31 37 0 47 15 24 38 -17 17 -42 15 -61 -6z m53 -7 c11 -13 8
-15 -20 -15 -28 0 -31 2 -20 15 7 8 16 15 20 15 4 0 13 -7 20 -15z"/>
<path d="M4441 6765 c1 -27 3 -41 6 -30 2 11 6 30 9 43 2 12 11 22 19 22 8 0
15 4 15 9 0 5 -11 8 -25 7 -23 -1 -25 -4 -24 -51z"/>
<path d="M4520 6810 c-11 -7 -7 -10 18 -10 17 0 32 -4 32 -10 0 -5 -11 -10
-24 -10 -13 0 -29 -7 -36 -15 -19 -23 5 -45 44 -41 25 3 32 8 34 29 6 52 -29
82 -68 57z m50 -49 c0 -5 -7 -14 -15 -21 -18 -15 -42 1 -31 19 8 13 46 15 46
2z"/>
<path d="M4690 6770 c0 -27 5 -50 10 -50 6 0 10 23 10 50 0 28 -4 50 -10 50
-5 0 -10 -22 -10 -50z"/>
<path d="M4740 6769 c0 -27 5 -49 10 -49 6 0 10 18 10 40 0 36 3 40 25 40 23
0 25 -4 25 -41 0 -24 4 -38 10 -34 13 8 13 55 0 75 -5 8 -25 15 -45 16 l-35 1
0 -48z"/>
<path d="M4858 6795 c-8 -19 -8 -31 1 -51 10 -22 16 -25 41 -20 17 3 30 1 30
-4 0 -15 -31 -28 -53 -22 -14 3 -18 1 -13 -6 9 -16 49 -15 64 0 7 7 12 37 12
68 l0 55 -35 3 c-29 2 -37 -2 -47 -23z m66 -10 c8 -23 -4 -45 -25 -45 -22 0
-34 22 -25 45 3 8 14 15 25 15 10 0 21 -7 25 -15z"/>
<path d="M5154 6811 c-8 -9 -4 -80 6 -86 6 -4 10 8 10 28 0 25 6 39 23 50 l22
15 -28 -2 c-16 0 -31 -3 -33 -5z"/>
<path d="M5236 6804 c-30 -30 -9 -84 33 -84 25 0 41 20 41 50 0 47 -42 66 -74
34z m58 -19 c8 -23 -4 -45 -25 -45 -22 0 -34 22 -25 45 3 8 14 15 25 15 10 0
21 -7 25 -15z"/>
<path d="M5346 6804 c-9 -8 -16 -23 -16 -33 0 -34 59 -67 75 -42 3 5 -7 11
-22 13 -22 2 -28 8 -28 28 0 20 6 26 28 28 15 2 25 8 22 13 -9 14 -42 11 -59
-7z"/>
<path d="M5442 6808 c-7 -7 -12 -24 -12 -38 0 -32 17 -50 46 -50 36 0 38 18 2
22 -46 4 -49 28 -4 28 23 0 36 5 36 13 0 18 -21 37 -40 37 -9 0 -21 -5 -28
-12z m42 -4 c27 -10 18 -24 -15 -24 -27 0 -30 2 -19 15 14 17 13 17 34 9z"/>
<path d="M5664 6775 l1 -50 38 -2 37 -1 0 49 c0 57 -17 66 -22 12 -2 -30 -7
-38 -23 -38 -16 0 -21 9 -26 40 -7 38 -7 38 -5 -10z"/>
<path d="M5770 6768 c0 -26 5 -48 10 -48 6 0 10 15 10 34 0 24 7 38 23 49 22
15 22 15 -10 15 -33 -1 -33 -2 -33 -50z"/>
<path d="M5858 6809 c-28 -16 -23 -67 6 -81 15 -6 32 -7 43 -2 15 6 12 9 -14
12 -46 5 -44 32 2 32 38 0 44 10 19 34 -18 18 -32 20 -56 5z m36 -5 c25 -9 19
-24 -9 -24 -24 0 -32 10 -18 23 8 8 8 8 27 1z"/>
<path d="M5963 6813 c-25 -9 -13 -39 20 -51 26 -10 29 -14 17 -22 -8 -5 -24
-7 -35 -4 -15 5 -17 3 -9 -6 18 -19 59 -8 62 16 2 16 -4 23 -23 28 -32 8 -28
32 5 28 14 -2 20 0 16 7 -7 11 -32 13 -53 4z"/>
<path d="M3213 5803 c20 -2 54 -2 75 0 20 2 3 4 -38 4 -41 0 -58 -2 -37 -4z"/>
<path d="M3153 5710 c0 -41 2 -58 4 -37 2 20 2 54 0 75 -2 20 -4 3 -4 -38z"/>
<path d="M3343 5710 c0 -41 2 -58 4 -37 2 20 2 54 0 75 -2 20 -4 3 -4 -38z"/>
<path d="M3477 5742 c-22 -24 -21 -55 1 -75 21 -19 40 -21 62 -7 11 7 6 8 -17
4 -40 -8 -62 23 -44 63 10 22 16 24 44 19 23 -4 28 -3 17 4 -23 15 -45 12 -63
-8z"/>
<path d="M5362 5723 c-2 -51 5 -73 26 -73 14 0 14 1 -1 13 -9 7 -18 31 -20 57
l-4 45 -1 -42z"/>
<path d="M5664 5711 c1 -39 5 -56 16 -58 10 -3 11 -2 3 4 -6 5 -14 31 -16 58
l-4 50 1 -54z"/>
<path d="M5982 5705 c1 -47 2 -52 7 -25 4 22 12 35 21 35 9 0 18 -13 22 -35
l6 -35 -1 40 c-2 33 -6 40 -22 40 -11 0 -23 9 -27 20 -3 11 -6 -7 -6 -40z"/>
<path d="M3742 5734 c-7 -8 -8 -14 -3 -14 5 0 11 -15 13 -32 2 -24 9 -34 23
-36 18 -2 18 -2 3 8 -10 6 -18 22 -18 35 0 17 6 25 18 26 13 0 14 2 2 6 -8 3
-17 9 -20 13 -3 4 -11 2 -18 -6z"/>
<path d="M3962 5737 c-12 -15 8 -79 26 -83 7 -1 8 0 2 3 -12 6 -13 60 -1 65 5
2 3 8 -4 15 -10 10 -15 10 -23 0z"/>
<path d="M4392 5733 c-7 -7 -8 -13 -3 -13 5 0 11 -15 13 -32 2 -23 8 -33 21
-34 12 -1 13 -1 2 3 -16 5 -21 59 -6 65 5 2 4 8 -3 14 -8 8 -15 7 -24 -3z"/>
<path d="M4992 5733 c-7 -7 -8 -13 -3 -13 5 0 11 -15 13 -32 2 -23 8 -33 21
-34 12 -1 13 -1 2 3 -16 5 -21 59 -6 65 5 2 4 8 -3 14 -8 8 -15 7 -24 -3z"/>
<path d="M5919 5740 c-4 -48 9 -90 29 -90 16 1 16 1 0 11 -10 5 -18 21 -18 34
0 17 6 25 18 26 13 0 14 2 2 6 -8 3 -18 11 -22 17 -5 7 -8 6 -9 -4z"/>
<path d="M6252 5737 c-12 -15 8 -79 26 -83 7 -1 8 0 2 3 -12 6 -13 60 -1 65 5
2 3 8 -4 15 -10 10 -15 10 -23 0z"/>
<path d="M3572 5718 c-28 -28 -1 -75 38 -63 14 4 20 15 20 35 0 36 -33 53 -58
28z m43 -28 c0 -15 -6 -26 -16 -28 -19 -3 -31 21 -22 43 9 25 38 13 38 -15z"/>
<path d="M3651 5690 l1 -45 8 35 c5 20 5 39 -1 45 -5 5 -9 -8 -8 -35z"/>
<path d="M3692 5718 c9 -7 19 -26 21 -43 3 -21 4 -18 3 10 -1 31 -5 41 -21 43
-18 4 -19 3 -3 -10z"/>
<path d="M3828 5723 c12 -2 22 -8 22 -13 0 -5 -10 -10 -22 -12 -36 -5 -31 -43
5 -44 26 -1 28 1 25 35 -3 30 -7 36 -28 38 -22 1 -22 1 -2 -4z m20 -45 c-7
-19 -38 -22 -38 -4 0 10 9 16 21 16 12 0 19 -5 17 -12z"/>
<path d="M3892 5718 c-25 -25 -1 -77 30 -65 9 4 7 6 -3 6 -33 2 -34 56 -1 64
14 4 14 5 2 6 -9 0 -21 -4 -28 -11z"/>
<path d="M4060 5710 c-14 -26 3 -60 30 -60 27 0 44 34 30 60 -6 11 -19 20 -30
20 -11 0 -24 -9 -30 -20z m48 -23 c3 -22 -1 -27 -17 -27 -17 0 -21 6 -21 31 0
24 4 30 18 27 10 -2 18 -14 20 -31z"/>
<path d="M4151 5686 l2 -41 6 35 c8 48 38 54 44 8 l4 -33 -1 35 c-1 31 -4 35
-28 36 -26 1 -28 -1 -27 -40z"/>
<path d="M4287 5723 c-10 -10 -8 -33 3 -33 5 0 7 6 4 14 -3 8 2 16 13 19 14 4
14 5 2 6 -9 0 -19 -2 -22 -6z"/>
<path d="M4363 5690 c0 -25 2 -35 4 -22 2 12 2 32 0 45 -2 12 -4 2 -4 -23z"/>
<path d="M4450 5711 c-8 -15 -8 -27 0 -41 11 -20 44 -27 54 -12 3 5 -4 8 -16
8 -12 -1 -23 5 -25 12 -3 7 5 12 22 12 20 0 26 4 23 18 -5 25 -44 27 -58 3z
m50 -1 c0 -5 -9 -10 -20 -10 -11 0 -20 5 -20 10 0 6 9 10 20 10 11 0 20 -4 20
-10z"/>
<path d="M4574 5719 c-3 -6 -1 -16 6 -22 10 -9 11 -9 6 1 -5 7 1 16 16 21 23
10 23 10 1 10 -12 1 -25 -4 -29 -10z"/>
<path d="M4663 5723 c-7 -2 -13 -17 -13 -33 0 -26 16 -41 43 -39 7 0 2 4 -10
9 -31 13 -29 30 5 31 l27 1 -30 8 c-24 5 -27 8 -13 14 9 4 22 4 29 0 8 -4 9
-3 5 4 -7 12 -22 14 -43 5z"/>
<path d="M4742 5718 c-25 -25 -1 -77 30 -65 9 4 7 6 -3 6 -33 2 -34 56 -1 64
14 4 14 5 2 6 -9 0 -21 -4 -28 -11z"/>
<path d="M4813 5695 c2 -36 5 -40 30 -41 25 -1 27 1 26 40 l-2 41 -6 -35 c-4
-22 -12 -35 -21 -35 -9 0 -18 13 -22 35 l-6 35 1 -40z"/>
<path d="M4901 5685 c2 -33 3 -35 6 -10 2 17 11 35 20 42 13 10 13 12 -6 10
-18 -1 -21 -7 -20 -42z"/>
<path d="M4963 5690 c0 -25 2 -35 4 -22 2 12 2 32 0 45 -2 12 -4 2 -4 -23z"/>
<path d="M5056 5693 c9 -20 13 -44 11 -55 -9 -33 3 -19 23 28 24 55 25 71 3
30 l-15 -29 -14 31 c-7 18 -15 32 -18 32 -3 0 2 -16 10 -37z"/>
<path d="M5182 5718 c-28 -28 -1 -75 38 -63 14 4 20 15 20 35 0 36 -33 53 -58
28z m43 -28 c0 -15 -6 -26 -16 -28 -19 -3 -31 21 -22 43 9 25 38 13 38 -15z"/>
<path d="M5261 5690 l1 -45 8 35 c5 20 5 39 -1 45 -5 5 -9 -8 -8 -35z"/>
<path d="M5410 5710 c-14 -26 3 -60 30 -60 11 0 24 9 30 20 14 26 -3 60 -30
60 -11 0 -24 -9 -30 -20z m48 -23 c3 -22 -1 -27 -17 -27 -17 0 -21 6 -21 31 0
24 4 30 18 27 10 -2 18 -14 20 -31z"/>
<path d="M5500 5710 c-15 -27 4 -60 33 -59 l22 0 -22 9 c-14 6 -23 18 -23 30
0 12 9 24 23 30 l22 9 -22 0 c-13 1 -27 -8 -33 -19z"/>
<path d="M5598 5723 c12 -2 22 -8 22 -13 0 -5 -10 -10 -22 -12 -36 -5 -31 -43
5 -44 26 -1 28 1 25 35 -3 30 -7 36 -28 38 -22 1 -22 1 -2 -4z m20 -45 c-7
-19 -38 -22 -38 -4 0 10 9 16 21 16 12 0 19 -5 17 -12z"/>
<path d="M5773 5724 c20 -6 23 -24 4 -24 -23 0 -38 -22 -26 -37 7 -7 17 -13
23 -13 6 0 3 5 -7 11 -9 6 -15 14 -12 20 10 15 33 10 39 -8 2 -10 4 -2 3 17
-2 27 -7 35 -22 37 -16 1 -16 1 -2 -3z"/>
<path d="M5833 5695 c2 -36 5 -40 30 -41 25 -1 27 1 26 40 l-2 41 -6 -35 c-4
-22 -12 -35 -21 -35 -9 0 -18 13 -22 35 l-6 35 1 -40z"/>
<path d="M6070 5710 c-14 -26 3 -60 30 -60 11 0 24 9 30 20 14 26 -3 60 -30
60 -11 0 -24 -9 -30 -20z m48 -23 c3 -22 -1 -27 -17 -27 -17 0 -21 6 -21 31 0
24 4 30 18 27 10 -2 18 -14 20 -31z"/>
<path d="M6161 5685 c2 -33 3 -35 6 -10 2 17 11 35 20 42 13 10 13 12 -6 10
-18 -1 -21 -7 -20 -42z"/>
<path d="M6313 5690 c0 -25 2 -35 4 -22 2 12 2 32 0 45 -2 12 -4 2 -4 -23z"/>
<path d="M6352 5718 c-25 -25 -6 -68 29 -68 10 0 20 4 23 9 3 4 -5 6 -18 4
-15 -3 -25 1 -29 11 -5 12 0 16 23 16 32 0 42 23 14 34 -22 8 -28 8 -42 -6z
m43 -8 c4 -6 -5 -10 -20 -10 -15 0 -24 4 -20 10 3 6 12 10 20 10 8 0 17 -4 20
-10z"/>
<path d="M6437 5723 c-10 -10 -8 -33 3 -33 5 0 7 6 4 14 -4 9 3 16 18 19 20 4
21 4 2 6 -11 0 -24 -2 -27 -6z"/>
<path d="M6213 5685 c0 -22 2 -30 4 -17 2 12 2 30 0 40 -3 9 -5 -1 -4 -23z"/>
<path d="M4316 5676 c4 -9 -3 -16 -18 -19 -22 -5 -22 -5 2 -4 24 2 44 37 21
37 -6 0 -8 -6 -5 -14z"/>
<path d="M4610 5683 c21 -10 9 -25 -16 -20 -16 3 -22 1 -16 -5 14 -14 47 -6
47 11 0 8 -6 15 -13 17 -7 1 -8 0 -2 -3z"/>
<path d="M6470 5680 c12 -7 10 -11 -10 -19 -15 -6 -19 -10 -9 -10 9 -1 22 5
28 12 11 14 5 27 -13 27 -6 0 -4 -5 4 -10z"/>
<path d="M3213 5613 c20 -2 54 -2 75 0 20 2 3 4 -38 4 -41 0 -58 -2 -37 -4z"/>
<path d="M3213 5463 c20 -2 54 -2 75 0 20 2 3 4 -38 4 -41 0 -58 -2 -37 -4z"/>
<path d="M3153 5370 c0 -41 2 -58 4 -37 2 20 2 54 0 75 -2 20 -4 3 -4 -38z"/>
<path d="M3343 5370 c0 -41 2 -58 4 -37 2 20 2 54 0 75 -2 20 -4 3 -4 -38z"/>
<path d="M3470 5366 c0 -55 1 -56 29 -56 32 0 57 23 45 42 -4 7 -8 24 -8 38
-1 21 -6 26 -33 28 l-33 3 0 -55z m60 24 c0 -15 -7 -20 -25 -20 -18 0 -25 5
-25 20 0 15 7 20 25 20 18 0 25 -5 25 -20z m5 -50 c0 -9 -11 -16 -27 -18 -23
-3 -28 1 -28 18 0 17 5 21 28 18 16 -2 27 -9 27 -18z"/>
<path d="M4116 5400 c4 -14 14 -41 24 -60 l18 -34 26 53 c15 29 25 55 23 58
-3 2 -15 -17 -27 -44 l-22 -48 -24 50 c-13 28 -21 39 -18 25z"/>
<path d="M4809 5403 c0 -10 -1 -33 -2 -51 -1 -19 1 -36 5 -39 5 -2 8 21 8 51
0 31 -2 56 -5 56 -3 0 -5 -8 -6 -17z"/>
<path d="M5792 5365 c1 -47 2 -52 7 -25 8 48 38 54 44 8 l4 -33 -1 35 c-1 28
-5 35 -21 35 -11 0 -23 9 -27 20 -3 11 -6 -7 -6 -40z"/>
<path d="M6300 5402 c0 -13 -7 -18 -21 -18 -12 1 -26 -7 -33 -16 -15 -25 4
-53 38 -54 25 -1 26 1 26 52 0 30 -2 54 -5 54 -3 0 -5 -8 -5 -18z m-5 -52 c0
-28 -29 -40 -38 -15 -9 22 3 46 22 43 10 -2 16 -13 16 -28z"/>
<path d="M6626 5404 c-8 -22 -7 -97 2 -111 4 -6 7 20 7 58 0 38 -1 69 -1 69
-1 0 -5 -7 -8 -16z"/>
<path d="M7464 5371 c1 -39 5 -56 16 -58 10 -3 11 -2 3 4 -6 5 -14 31 -16 58
l-4 50 1 -54z"/>
<path d="M4320 5365 c0 -25 5 -45 10 -45 6 0 10 20 10 45 0 25 -4 45 -10 45
-5 0 -10 -20 -10 -45z"/>
<path d="M4882 5394 c-7 -8 -8 -14 -3 -14 5 0 11 -15 13 -32 2 -24 9 -34 23
-36 18 -2 18 -2 3 8 -10 6 -18 22 -18 35 0 17 6 25 18 26 13 0 14 2 2 6 -8 3
-17 9 -20 13 -3 4 -11 2 -18 -6z"/>
<path d="M5322 5397 c-12 -15 8 -79 26 -83 7 -1 8 0 2 3 -12 6 -13 60 -1 65 5
2 3 8 -4 15 -10 10 -15 10 -23 0z"/>
<path d="M5732 5397 c-12 -15 8 -79 26 -83 7 -1 8 0 2 3 -12 6 -13 60 -1 65 5
2 3 8 -4 15 -10 10 -15 10 -23 0z"/>
<path d="M6512 5394 c-7 -8 -8 -14 -3 -14 5 0 11 -15 13 -32 2 -24 9 -34 23
-36 18 -2 18 -2 3 8 -10 6 -18 22 -18 35 0 17 6 25 18 26 13 0 14 2 2 6 -8 3
-17 9 -20 13 -3 4 -11 2 -18 -6z"/>
<path d="M6962 5397 c-12 -15 8 -79 26 -83 7 -1 8 0 2 3 -12 6 -13 60 -1 65 5
2 3 8 -4 15 -10 10 -15 10 -23 0z"/>
<path d="M7142 5393 c-7 -7 -8 -13 -3 -13 5 0 11 -15 13 -32 2 -23 8 -33 21
-34 12 -1 13 -1 2 3 -16 5 -21 59 -6 65 5 2 4 8 -3 14 -8 8 -15 7 -24 -3z"/>
<path d="M7725 5350 c0 -55 1 -59 9 -32 5 19 5 45 0 64 -8 27 -9 23 -9 -32z"/>
<path d="M3571 5345 c2 -33 3 -35 6 -10 2 17 11 35 20 42 13 10 13 12 -6 10
-18 -1 -21 -7 -20 -42z"/>
<path d="M3633 5350 c0 -25 2 -35 4 -22 2 12 2 32 0 45 -2 12 -4 2 -4 -23z"/>
<path d="M3671 5346 l2 -41 6 35 c8 48 38 54 44 8 l4 -33 -1 35 c-1 31 -4 35
-28 36 -26 1 -28 -1 -27 -40z"/>
<path d="M3762 5378 c-26 -26 0 -77 33 -64 9 3 15 0 15 -10 0 -12 -7 -15 -26
-11 -16 3 -22 1 -16 -5 6 -6 18 -8 28 -6 15 2 20 14 22 53 3 47 1 51 -21 53
-13 1 -29 -4 -35 -10z m43 -28 c0 -28 -29 -40 -38 -15 -9 22 3 46 22 43 10 -2
16 -13 16 -28z"/>
<path d="M3893 5355 c2 -36 5 -40 30 -41 25 -1 27 1 26 40 l-2 41 -6 -35 c-4
-22 -12 -35 -21 -35 -9 0 -18 13 -22 35 l-6 35 1 -40z"/>
<path d="M3981 5331 c1 -32 4 -48 7 -36 5 13 16 20 32 20 22 0 25 4 25 35 0
33 -2 35 -32 36 l-33 1 1 -56z m54 19 c0 -16 -6 -26 -18 -28 -19 -4 -32 20
-23 44 9 25 41 13 41 -16z"/>
<path d="M4233 5350 c0 -25 2 -35 4 -22 2 12 2 32 0 45 -2 12 -4 2 -4 -23z"/>
<path d="M4270 5370 c-14 -25 3 -61 28 -59 16 1 16 2 0 6 -12 3 -18 14 -18 33
0 19 6 30 18 33 16 4 16 5 0 6 -10 0 -22 -8 -28 -19z"/>
<path d="M4373 5383 c-7 -2 -13 -17 -13 -33 0 -26 16 -41 43 -39 7 0 2 4 -10
9 -31 13 -29 30 5 31 l27 1 -30 8 c-24 5 -27 8 -13 14 9 4 22 4 29 0 8 -4 9
-3 5 4 -7 12 -22 14 -43 5z"/>
<path d="M4452 5378 c-28 -28 -1 -75 38 -63 14 4 20 15 20 35 0 36 -33 53 -58
28z m43 -28 c0 -28 -29 -40 -38 -15 -9 22 3 46 22 43 10 -2 16 -13 16 -28z"/>
<path d="M4603 5384 c20 -6 23 -24 4 -24 -23 0 -38 -22 -26 -37 7 -7 17 -13
23 -13 6 0 3 5 -7 11 -9 6 -15 14 -12 20 10 15 33 10 39 -8 2 -10 4 -2 3 17
-2 27 -7 35 -22 37 -16 1 -16 1 -2 -3z"/>
<path d="M4661 5345 l2 -40 6 35 c8 45 38 53 47 13 10 -46 12 -50 13 -17 1 36
-15 54 -47 51 -19 -1 -22 -7 -21 -42z"/>
<path d="M4754 5376 c-11 -27 1 -61 21 -64 18 -2 18 -2 3 8 -10 6 -18 20 -18
30 0 10 8 24 18 29 16 10 16 10 -1 11 -10 0 -20 -6 -23 -14z"/>
<path d="M4981 5346 l2 -41 6 35 c4 22 12 36 24 38 14 3 17 -4 18 -35 l2 -38
6 35 c9 50 38 53 44 6 l4 -36 -1 37 -1 38 -52 1 -53 1 1 -41z"/>
<path d="M5120 5371 c-8 -15 -8 -27 0 -41 11 -20 44 -27 54 -12 3 5 -4 8 -16
8 -12 -1 -23 5 -25 12 -3 7 5 12 22 12 20 0 26 4 23 18 -5 25 -44 27 -58 3z
m50 -1 c0 -5 -9 -10 -20 -10 -11 0 -20 5 -20 10 0 6 9 10 20 10 11 0 20 -4 20
-10z"/>
<path d="M5244 5379 c-3 -6 -1 -16 6 -22 10 -9 11 -9 6 1 -5 7 1 16 16 21 23
10 23 10 1 10 -12 1 -25 -4 -29 -10z"/>
<path d="M5403 5384 c20 -6 23 -24 4 -24 -23 0 -38 -22 -26 -37 7 -7 17 -13
23 -13 6 0 3 5 -7 11 -9 6 -15 14 -12 20 10 15 33 10 39 -8 2 -10 4 -2 3 17
-2 27 -7 35 -22 37 -16 1 -16 1 -2 -3z"/>
<path d="M5461 5346 l2 -41 6 35 c4 22 12 36 24 38 14 3 17 -4 18 -35 l2 -38
6 35 c9 50 38 53 44 6 l4 -36 -1 37 -1 38 -52 1 -53 1 1 -41z"/>
<path d="M5601 5331 c1 -32 4 -48 7 -36 4 11 16 20 26 20 51 0 43 69 -8 71
-25 1 -26 -1 -25 -55z m54 19 c0 -16 -6 -26 -18 -28 -19 -4 -32 20 -23 44 9
25 41 13 41 -16z"/>
<path d="M5893 5383 c-7 -2 -13 -17 -13 -33 0 -26 16 -41 43 -39 7 0 2 4 -10
9 -31 13 -29 30 5 31 l27 1 -30 8 c-24 5 -27 8 -13 14 9 4 22 4 29 0 8 -4 9
-3 5 4 -7 12 -22 14 -43 5z"/>
<path d="M6013 5350 c0 -25 2 -35 4 -22 2 12 2 32 0 45 -2 12 -4 2 -4 -23z"/>
<path d="M6041 5350 l1 -45 8 35 c5 20 5 39 -1 45 -5 5 -9 -8 -8 -35z"/>
<path d="M6082 5378 c9 -7 19 -26 21 -43 3 -21 4 -18 3 10 -1 31 -5 41 -21 43
-18 4 -19 3 -3 -10z"/>
<path d="M6140 5375 c-15 -18 -10 -45 12 -59 12 -7 21 -7 28 0 8 8 4 10 -12
10 -18 -1 -23 4 -23 24 0 19 5 25 22 24 12 0 20 3 17 8 -8 13 -30 9 -44 -7z"/>
<path d="M6213 5350 c0 -25 2 -35 4 -22 2 12 2 32 0 45 -2 12 -4 2 -4 -23z"/>
<path d="M6340 5371 c-8 -15 -8 -27 0 -41 11 -20 44 -27 54 -12 3 5 -4 8 -16
8 -12 -1 -23 5 -25 12 -3 7 5 12 22 12 20 0 26 4 23 18 -5 25 -44 27 -58 3z
m50 -1 c0 -5 -9 -10 -20 -10 -11 0 -20 5 -20 10 0 6 9 10 20 10 11 0 20 -4 20
-10z"/>
<path d="M6421 5350 l1 -45 8 35 c5 20 5 39 -1 45 -5 5 -9 -8 -8 -35z"/>
<path d="M6462 5378 c9 -7 19 -26 21 -43 3 -21 4 -18 3 10 -1 31 -5 41 -21 43
-18 4 -19 3 -3 -10z"/>
<path d="M6673 5383 c-7 -2 -13 -17 -13 -33 0 -26 16 -41 43 -39 7 0 2 4 -10
9 -14 6 -23 18 -23 30 0 12 9 24 23 30 12 5 15 9 7 9 -8 -1 -21 -3 -27 -6z"/>
<path d="M6741 5345 c2 -33 3 -35 6 -10 2 17 11 35 20 42 13 10 13 12 -6 10
-18 -1 -21 -7 -20 -42z"/>
<path d="M6803 5383 c-7 -2 -13 -17 -13 -33 0 -26 16 -41 43 -39 7 0 2 4 -10
9 -31 13 -29 30 5 31 l27 1 -30 8 c-24 5 -27 8 -13 14 9 4 22 4 29 0 8 -4 9
-3 5 4 -7 12 -22 14 -43 5z"/>
<path d="M6903 5384 c20 -6 23 -24 4 -24 -23 0 -38 -22 -26 -37 7 -7 17 -13
23 -13 6 0 3 5 -7 11 -9 6 -15 14 -12 20 10 15 33 10 39 -8 2 -10 4 -2 3 17
-2 27 -7 35 -22 37 -16 1 -16 1 -2 -3z"/>
<path d="M7022 5378 c-25 -25 -6 -68 29 -68 10 0 20 4 23 9 3 4 -5 6 -18 4
-15 -3 -25 1 -29 11 -5 12 0 16 23 16 32 0 42 23 14 34 -22 8 -28 8 -42 -6z
m43 -8 c4 -6 -5 -10 -20 -10 -15 0 -24 4 -20 10 3 6 12 10 20 10 8 0 17 -4 20
-10z"/>
<path d="M7203 5350 c0 -25 2 -35 4 -22 2 12 2 32 0 45 -2 12 -4 2 -4 -23z"/>
<path d="M7241 5346 l2 -41 6 35 c4 22 12 35 21 35 9 0 17 -13 21 -35 l6 -35
4 35 c2 23 9 35 19 35 9 0 18 -13 22 -35 l6 -35 -1 40 -2 40 -52 1 -53 1 1
-41z"/>
<path d="M7382 5378 c-26 -26 -6 -69 33 -67 17 1 17 2 -4 8 -37 10 -38 31 -2
31 17 0 31 4 31 8 0 12 -22 32 -35 32 -6 0 -16 -5 -23 -12z m43 -8 c4 -6 -5
-10 -20 -10 -15 0 -24 4 -20 10 3 6 12 10 20 10 8 0 17 -4 20 -10z"/>
<path d="M7513 5350 c0 -25 2 -35 4 -22 2 12 2 32 0 45 -2 12 -4 2 -4 -23z"/>
<path d="M7541 5350 l1 -45 8 35 c5 20 5 39 -1 45 -5 5 -9 -8 -8 -35z"/>
<path d="M7582 5378 c9 -7 19 -26 21 -43 3 -21 4 -18 3 10 -1 31 -5 41 -21 43
-18 4 -19 3 -3 -10z"/>
<path d="M7642 5378 c-26 -26 -6 -69 33 -67 17 1 17 2 -4 8 -37 10 -38 31 -2
31 17 0 31 4 31 8 0 12 -22 32 -35 32 -6 0 -16 -5 -23 -12z m43 -8 c4 -6 -5
-10 -20 -10 -15 0 -24 4 -20 10 3 6 12 10 20 10 8 0 17 -4 20 -10z"/>
<path d="M4943 5345 c0 -22 2 -30 4 -17 2 12 2 30 0 40 -3 9 -5 -1 -4 -23z"/>
<path d="M5280 5343 c21 -10 9 -25 -16 -20 -16 3 -22 1 -16 -5 14 -14 47 -6
47 11 0 8 -6 15 -13 17 -7 1 -8 0 -2 -3z"/>
<path d="M3213 5273 c20 -2 54 -2 75 0 20 2 3 4 -38 4 -41 0 -58 -2 -37 -4z"/>
<path d="M3213 5123 c20 -2 54 -2 75 0 20 2 3 4 -38 4 -41 0 -58 -2 -37 -4z"/>
<path d="M3153 5030 c0 -41 2 -58 4 -37 2 20 2 54 0 75 -2 20 -4 3 -4 -38z"/>
<path d="M3343 5030 c0 -41 2 -58 4 -37 2 20 2 54 0 75 -2 20 -4 3 -4 -38z"/>
<path d="M3477 5062 c-22 -24 -21 -55 1 -75 21 -19 40 -21 62 -7 11 7 6 8 -17
4 -40 -8 -62 23 -44 63 10 22 16 24 44 19 23 -4 28 -3 17 4 -23 15 -45 12 -63
-8z"/>
<path d="M5040 5062 c0 -13 -7 -18 -21 -18 -12 1 -26 -7 -33 -16 -15 -25 4
-53 38 -54 25 -1 26 1 26 52 0 30 -2 54 -5 54 -3 0 -5 -8 -5 -18z m-5 -52 c0
-16 -6 -26 -18 -28 -19 -4 -32 20 -23 44 9 25 41 13 41 -16z"/>
<path d="M3742 5054 c-7 -8 -8 -14 -3 -14 5 0 11 -15 13 -32 2 -24 9 -34 23
-36 18 -2 18 -2 3 8 -10 6 -18 22 -18 35 0 17 6 25 18 26 13 0 14 2 2 6 -8 3
-17 9 -20 13 -3 4 -11 2 -18 -6z"/>
<path d="M3962 5057 c-12 -15 8 -79 26 -83 7 -1 8 0 2 3 -12 6 -13 60 -1 65 5
2 3 8 -4 15 -10 10 -15 10 -23 0z"/>
<path d="M4479 5060 c-4 -48 9 -90 29 -90 16 1 16 1 0 11 -10 5 -18 21 -18 34
0 17 6 25 18 26 13 0 14 2 2 6 -8 3 -18 11 -22 17 -5 7 -8 6 -9 -4z"/>
<path d="M3572 5038 c-28 -28 -1 -75 38 -63 14 4 20 15 20 35 0 36 -33 53 -58
28z m43 -28 c0 -15 -6 -26 -16 -28 -19 -3 -31 21 -22 43 9 25 38 13 38 -15z"/>
<path d="M3651 5010 l1 -45 8 35 c5 20 5 39 -1 45 -5 5 -9 -8 -8 -35z"/>
<path d="M3692 5038 c9 -7 19 -26 21 -43 3 -21 4 -18 3 10 -1 31 -5 41 -21 43
-18 4 -19 3 -3 -10z"/>
<path d="M3828 5043 c12 -2 22 -8 22 -13 0 -5 -10 -10 -22 -12 -36 -5 -31 -43
5 -44 26 -1 28 1 25 35 -3 30 -7 36 -28 38 -22 1 -22 1 -2 -4z m20 -45 c-7
-19 -38 -22 -38 -4 0 10 9 16 21 16 12 0 19 -5 17 -12z"/>
<path d="M3892 5038 c-25 -25 -1 -77 30 -65 9 4 7 6 -3 6 -33 2 -34 56 -1 64
14 4 14 5 2 6 -9 0 -21 -4 -28 -11z"/>
<path d="M4067 5043 c-10 -10 -8 -33 3 -33 5 0 7 6 4 14 -3 8 2 16 13 19 14 4
14 5 2 6 -9 0 -19 -2 -22 -6z"/>
<path d="M4142 5038 c-26 -26 -6 -69 33 -67 17 1 17 2 -4 8 -37 10 -38 31 -2
31 17 0 31 4 31 8 0 12 -22 32 -35 32 -6 0 -16 -5 -23 -12z m43 -8 c4 -6 -5
-10 -20 -10 -15 0 -24 4 -20 10 3 6 12 10 20 10 8 0 17 -4 20 -10z"/>
<path d="M4220 5030 c-15 -27 4 -60 33 -59 l22 0 -22 9 c-14 6 -23 18 -23 30
0 12 9 24 23 30 l22 9 -22 0 c-13 1 -27 -8 -33 -19z"/>
<path d="M4291 5028 c-2 -37 8 -58 27 -58 14 0 14 1 0 13 -9 6 -19 26 -21 42
-4 28 -4 29 -6 3z"/>
<path d="M4347 5018 c-3 -18 -1 -37 4 -42 5 -6 9 7 9 32 0 50 -6 54 -13 10z"/>
<path d="M4381 5010 l1 -45 8 35 c5 20 5 39 -1 45 -5 5 -9 -8 -8 -35z"/>
<path d="M4443 5010 c0 -25 2 -35 4 -22 2 12 2 32 0 45 -2 12 -4 2 -4 -23z"/>
<path d="M4530 5047 c0 -4 7 -23 15 -43 8 -19 12 -42 9 -52 -2 -9 7 7 21 37
14 29 24 55 22 58 -2 2 -10 -11 -17 -28 l-13 -31 -18 33 c-10 19 -18 30 -19
26z"/>
<path d="M4660 5030 c-13 -25 3 -60 28 -60 16 1 16 1 0 11 -10 5 -18 19 -18
29 0 10 8 24 18 29 16 10 16 10 0 11 -10 0 -22 -9 -28 -20z"/>
<path d="M4720 5045 c-1 -5 -4 -23 -5 -40 -2 -16 -3 -36 -4 -44 -1 -9 -9 -12
-26 -9 -13 3 -22 1 -19 -3 10 -16 43 -9 54 11 6 12 9 38 7 58 -2 20 -5 33 -7
27z"/>
<path d="M4753 5015 c2 -36 5 -40 30 -41 25 -1 27 1 26 40 l-2 41 -6 -35 c-4
-22 -12 -35 -21 -35 -9 0 -18 13 -22 35 l-6 35 1 -40z"/>
<path d="M4868 5043 c12 -2 22 -8 22 -13 0 -5 -10 -10 -22 -12 -36 -5 -31 -43
5 -44 26 -1 28 1 25 35 -3 30 -7 36 -28 38 -22 1 -22 1 -2 -4z m20 -45 c-7
-19 -38 -22 -38 -4 0 10 9 16 21 16 12 0 19 -5 17 -12z"/>
<path d="M4931 5005 c2 -33 3 -35 6 -10 2 17 11 35 20 42 13 10 13 12 -6 10
-18 -1 -21 -7 -20 -42z"/>
<path d="M4096 4996 c4 -9 -3 -16 -18 -19 -22 -5 -22 -5 2 -4 24 2 44 37 21
37 -6 0 -8 -6 -5 -14z"/>
<path d="M3213 4933 c20 -2 54 -2 75 0 20 2 3 4 -38 4 -41 0 -58 -2 -37 -4z"/>
<path d="M3181 3824 c-12 -15 -21 -34 -21 -44 0 -10 9 -29 21 -44 20 -26 42
-32 73 -20 28 11 17 20 -19 16 -29 -4 -36 0 -46 22 -10 20 -10 32 0 52 10 22
17 26 46 22 36 -4 47 5 19 16 -31 12 -53 6 -73 -20z"/>
<path d="M3980 3825 c0 -8 -5 -15 -12 -15 -9 0 -9 -3 0 -12 7 -7 12 -24 12
-38 0 -14 5 -31 12 -38 15 -15 38 -16 38 -2 0 6 -7 10 -15 10 -23 0 -20 67 3
73 16 4 16 5 0 6 -10 0 -18 8 -18 16 0 8 -4 15 -10 15 -5 0 -10 -7 -10 -15z"/>
<path d="M3301 3796 c-17 -20 -10 -67 11 -79 28 -18 68 7 68 42 0 44 -53 68
-79 37z m59 -36 c0 -25 -4 -30 -25 -30 -21 0 -25 5 -25 30 0 25 4 30 25 30 21
0 25 -5 25 -30z"/>
<path d="M3411 3755 c1 -27 3 -41 6 -30 2 11 6 30 9 43 3 14 12 22 24 22 17 0
20 -7 20 -41 0 -24 4 -38 10 -34 6 3 10 22 10 41 0 27 4 34 20 34 17 0 20 -7
20 -40 0 -22 5 -40 10 -40 6 0 10 17 10 39 0 47 -22 71 -50 53 -12 -7 -21 -8
-25 -2 -3 5 -19 8 -35 7 -29 -2 -30 -3 -29 -52z"/>
<path d="M3580 3759 c0 -27 5 -49 10 -49 6 0 10 18 10 40 0 33 3 40 20 40 16
0 20 -7 20 -34 0 -48 18 -55 22 -9 2 30 7 38 23 38 16 0 21 -9 26 -40 7 -38 7
-38 5 10 l-1 50 -67 1 -68 2 0 -49z"/>
<path d="M3768 3799 c-28 -16 -23 -67 6 -81 15 -6 32 -7 43 -2 15 6 12 9 -14
12 -46 5 -44 32 2 32 38 0 44 10 19 34 -18 18 -32 20 -56 5z m36 -5 c25 -9 19
-24 -9 -24 -24 0 -32 10 -18 23 8 8 8 8 27 1z"/>
<path d="M3860 3759 c0 -27 5 -49 10 -49 6 0 10 18 10 40 0 36 3 40 25 40 23
0 25 -4 25 -41 0 -24 4 -38 10 -34 13 8 13 55 0 75 -5 8 -25 15 -45 16 l-35 1
0 -48z"/>
<path d="M4057 3803 c-16 -15 -6 -43 18 -49 35 -9 25 -30 -11 -26 -25 2 -27 1
-11 -9 24 -14 67 -3 67 17 0 9 -13 21 -30 27 -46 17 -38 33 14 27 11 -1 15 3
12 9 -8 12 -49 15 -59 4z"/>
<path d="M3250 2905 c-16 -19 1 -42 33 -47 12 -2 22 -10 22 -18 0 -11 -10 -15
-35 -13 -28 1 -31 0 -17 -9 27 -15 67 -2 67 22 0 14 -10 22 -32 28 -45 11 -44
38 1 35 24 -1 30 1 20 8 -21 13 -45 11 -59 -6z"/>
<path d="M3368 2883 c12 -2 22 -8 22 -13 0 -5 -10 -10 -22 -12 -36 -5 -31 -43
5 -44 26 -1 28 1 25 35 -3 30 -7 36 -28 38 -22 1 -22 1 -2 -4z m20 -45 c-7
-19 -38 -22 -38 -4 0 10 9 16 21 16 12 0 19 -5 17 -12z"/>
<path d="M3431 2846 l2 -41 6 35 c8 48 38 54 44 8 l4 -33 -1 35 c-1 31 -4 35
-28 36 -26 1 -28 -1 -27 -40z"/>
<path d="M3520 2870 c-13 -25 3 -60 28 -60 16 1 16 1 0 11 -10 5 -18 19 -18
29 0 10 8 24 18 29 16 10 16 10 0 11 -10 0 -22 -9 -28 -20z"/>
<path d="M3580 2885 c-1 -5 -4 -23 -5 -40 -2 -16 -3 -36 -4 -44 -1 -9 -9 -12
-26 -9 -13 3 -22 1 -19 -3 10 -16 43 -9 54 11 6 12 9 38 7 58 -2 20 -5 33 -7
27z"/>
<path d="M10759 873 l-34 -38 38 34 c34 33 42 41 34 41 -2 0 -19 -17 -38 -37z"/>
<path d="M10779 853 c-13 -16 -12 -17 4 -4 16 13 21 21 13 21 -2 0 -10 -8 -17
-17z"/>
</g>
</svg>
